<svg width="40" height="40" viewBox="0 0 40 40" fill="none" xmlns="http://www.w3.org/2000/svg">
<g clip-path="url(#clip0_128_752)">
<path d="M39.5 20C39.5 30.7696 30.7696 39.5 20 39.5C9.23045 39.5 0.5 30.7696 0.5 20C0.5 9.23045 9.23045 0.5 20 0.5C30.7696 0.5 39.5 9.23045 39.5 20Z" stroke="#849C9C"/>
<path d="M28.7463 11.2514C28.5109 11.2614 28.2818 11.325 28.0751 11.4052C27.8706 11.485 26.6932 11.9725 24.9545 12.6938C23.2159 13.415 20.9557 14.3542 18.7153 15.2855C14.2344 17.148 9.83113 18.9807 9.83113 18.9807L9.86322 18.9688C9.86322 18.9688 9.59747 19.055 9.32802 19.2371C9.1933 19.3282 9.04836 19.4458 8.92969 19.6172C8.81102 19.7886 8.72426 20.0315 8.75695 20.2884C8.87179 21.1909 9.83585 21.4469 9.83585 21.4469L9.83963 21.4488L14.142 22.8774C14.2517 23.2324 15.4469 27.1029 15.7098 27.9225C15.855 28.3757 15.991 28.6371 16.1327 28.8154C16.2037 28.9047 16.278 28.9737 16.3602 29.0242C16.3929 29.0443 16.4272 29.0593 16.4612 29.0728C16.4619 29.0731 16.4624 29.0724 16.4631 29.0728C16.4673 29.0745 16.4712 29.0747 16.4754 29.0764L16.464 29.0737C16.4719 29.0768 16.4797 29.082 16.4876 29.0847C16.503 29.0899 16.5124 29.0897 16.532 29.0938C17.0247 29.2607 17.4325 28.951 17.4325 28.951L17.4495 28.9381L20.0924 26.5598L24.3816 29.8045L24.4354 29.8283C25.1862 30.1517 25.8651 29.9713 26.2411 29.6744C26.6171 29.3776 26.765 28.9949 26.765 28.9949L26.781 28.9546L29.9328 13.017C30.0134 12.6605 30.0249 12.3523 29.9488 12.0738C29.8727 11.7953 29.688 11.5532 29.4561 11.419C29.2242 11.2848 28.9816 11.2414 28.7463 11.2514ZM28.7717 12.2047C28.8673 12.2004 28.9382 12.211 28.9605 12.224C28.9829 12.2369 28.9929 12.2352 29.0143 12.3137C29.0358 12.3922 29.0474 12.5576 28.9888 12.8165L28.987 12.822L25.8532 28.6671C25.8457 28.683 25.7804 28.8296 25.6313 28.9473C25.4792 29.0674 25.3101 29.1611 24.8611 28.9784L20.1708 25.4297L20.0386 25.329L20.0358 25.3317L18.6331 24.3106L26.5158 15.3129C26.5764 15.244 26.615 15.1595 26.6272 15.0696C26.6393 14.9798 26.6243 14.8885 26.5841 14.8067C26.5438 14.725 26.48 14.6563 26.4004 14.6089C26.3208 14.5616 26.2287 14.5377 26.1354 14.54C26.0442 14.5423 25.9555 14.5696 25.8796 14.6188L14.4733 21.9964L10.1643 20.565C10.1643 20.565 9.73645 20.334 9.71597 20.1731C9.71484 20.1641 9.70979 20.1722 9.73202 20.1401C9.75425 20.108 9.81014 20.0538 9.88021 20.0064C10.0204 19.9116 10.1804 19.8544 10.1804 19.8544L10.1964 19.8489L10.2125 19.8425C10.2125 19.8425 14.6159 18.0097 19.0966 16.1472C21.3369 15.216 23.5967 14.2775 25.3349 13.5564C27.0728 12.8356 28.3284 12.3167 28.4348 12.2752C28.5558 12.2282 28.6761 12.209 28.7717 12.2047ZM23.5443 17.2562L17.5665 24.0798L17.5637 24.0826C17.5544 24.0935 17.5455 24.1048 17.5373 24.1165C17.5278 24.1292 17.519 24.1423 17.5108 24.1559C17.4772 24.2112 17.4557 24.2726 17.4476 24.3363C17.4476 24.3375 17.4476 24.3387 17.4476 24.3399L16.6689 27.7375C16.6559 27.7008 16.6468 27.6874 16.633 27.6441V27.6432C16.3856 26.8721 15.258 23.222 15.102 22.7171L23.5443 17.2562ZM18.2414 25.198L19.3156 25.9801L17.7374 27.3996L18.2414 25.198Z" fill="#849C9C"/>
</g>
<defs>
<clipPath id="clip0_128_752">
<rect width="40" height="40" fill="white"/>
</clipPath>
</defs>
</svg>
