<svg width="406" height="999" viewBox="0 0 406 999" fill="none" xmlns="http://www.w3.org/2000/svg">
<path d="M-107.252 516.314C-116.417 517.094 -125.645 515.919 -134.314 512.869C-99.6553 501.873 -68.2871 488.586 -40.93 467.748C-30.414 459.849 -21.079 450.514 -13.2033 440.02C-0.559906 422.756 -2.99988 404.062 -19.2847 390.042C-28.9336 381.74 -40.5603 375.656 -51.2999 368.6L-82.4462 348.22C-120.155 379.743 -145.663 419.072 -128.565 472.128L-128.972 472.367C-134.258 466.465 -140.635 461.187 -144.647 454.516C-158.214 431.956 -160.894 406.866 -159.434 381.209C-159.12 375.582 -160.395 372.907 -165.442 369.956C-185.775 358.117 -196.514 340.432 -196.865 315.782C-167.604 341.073 -137.53 346.498 -104.72 323.296C-105.256 327.969 -105.755 332.313 -106.291 337.023C-93.3521 331.323 -82.8344 315.47 -81.0599 298.995C-136.513 301.56 -177.678 283.068 -191.043 224.441C-162.503 246.433 -129.397 244.179 -96.402 243.464C-83.1486 243.171 -69.8398 244.747 -55.3479 245.535C-55.0337 242.768 -54.4422 237.471 -53.8507 232.157C-42.8709 236.995 -36.0132 249.237 -38.8228 263.184C-41.577 276.819 -46.4384 290.069 -50.6159 303.503C-52.8156 310.467 -55.8655 317.175 -57.8803 324.194C-58.897 327.731 -58.4534 331.69 -58.6197 334.457C-8.48978 313.051 40.3463 312.666 91.1047 334.549C90.4762 330.278 90.4762 324.927 88.8496 320.125C84.21 306.564 78.4983 293.35 74.062 279.806C70.3651 268.352 68.5167 256.348 73.6738 244.875C75.892 239.89 80.2358 235.84 85.6517 232.266C86.2433 237.49 86.8163 242.713 87.1675 245.755C101.807 245.059 115.671 244.252 129.534 243.739C146.743 243.116 164.008 243.391 181.143 241.998C195.302 240.843 201.66 230.305 195.431 217.477C191.301 209.025 185.313 201.598 177.908 195.741C152.14 175.948 122.233 164.585 90.4577 158.629C16.5197 144.902 -57.0485 144.939 -129.933 165.227C-147.512 170.12 -163.926 177.616 -177.623 192.845C-177.161 174.354 -171.449 159.234 -160.284 147.413C-149.471 135.977 -136.107 126.924 -124.203 116.422C-121.116 113.71 -117.567 109.898 -117.142 106.013C-113.001 67.5264 -77.9545 40.201 -69.3407 32.3572C-59.0264 22.9738 -20.0426 8.67885 15.8543 0.834961C9.62502 6.58959 1.34399 22.424 -1.59505 29.2966C-2.50482 31.7779 -3.125 34.3543 -3.4435 36.9755C-3.01836 42.0154 1.69519 44.911 8.57143 46.4138C24.6344 49.8959 30.4016 45.6075 53.6736 43.4632C121.66 37.1588 183.62 50.4641 234.822 98.4438C243.334 106.824 251.131 115.89 258.131 125.549C216.929 110.723 175.302 110.888 133.286 117.889C154.414 120.894 175.708 123.093 196.651 127.052C252.012 137.608 303.122 157.181 343.141 198.71C363.622 219.969 378.021 244.747 387.245 275.5C355.119 253.232 323.141 236.61 284.249 236.225C286.504 238.296 288.667 240.477 291.033 242.438C331.163 275.701 365.803 313.528 386.376 361.837C416.376 432.322 412.92 500.572 367.984 564.422C360.036 575.785 348.705 584.747 339.277 595.193C336.323 598.279 334.388 602.186 333.732 606.391C326.338 710.414 279.277 790.997 189.96 846.674C181.221 851.737 172.01 855.953 162.455 859.265C183.897 826.276 194.415 790.008 197.908 751.649C201.101 713.831 199.08 675.758 191.901 638.481C207.539 666.136 223.139 693.572 248.038 715.179C244.341 701.452 240.034 688.788 237.835 675.74C232.511 644.071 236.116 612.475 240.367 580.935C244.785 548.295 249.313 515.673 252.826 482.941C254.23 469.709 253.047 456.221 253.047 442.622C272.789 466.905 289.203 493.772 300.016 524.067C296.319 443.777 290.534 364.165 233.029 299.544C240.589 336.198 241.772 372.852 238.445 411.961C233.509 408.882 229.942 406.885 226.651 404.521C223.361 402.156 220.052 399.132 215.117 397.336C217.964 403.714 220.219 410.458 223.805 416.396C233.546 432.506 234.896 448.78 230.293 467.162C219.683 509.753 205.191 550.696 183.989 589.237C182.843 591.326 181.309 593.195 179.128 596.348L163.065 569.755C165.006 599.812 169.257 632.617 168.832 665.348C167.945 733.579 149.164 796.147 104.746 850.285C79.1452 881.44 55.6514 914.429 32.361 947.417C19.9579 964.937 16.5752 978.756 15.2443 998.256C12.065 994.59 9.69897 992.079 7.72113 989.404C-17.6581 956.141 -23.5916 919.249 -12.7412 879.443C-1.5211 838.171 22.3793 803.808 48.6642 770.911C56.058 761.748 63.6552 752.859 71.1784 743.842C31.141 772.854 -11.2625 796.679 -60.9857 811.963C-58.6012 807.638 -57.2888 805.201 -55.9025 802.8C-36.9929 769.811 -26.3273 734.99 -34.3126 696.815C-36.259 688.822 -38.9636 681.029 -42.3903 673.54C-53.2414 647.776 -56.7083 619.542 -52.4089 591.949C-52.2264 590.743 -51.942 589.553 -51.5586 588.394C-51.1889 587.258 -50.6529 586.176 -49.8581 584.252C-47.3996 590.263 -45.2554 595.596 -43.0373 600.874C-32.5566 625.744 -14.3494 643.979 8.09081 658.329C9.58043 659.019 11.2097 659.361 12.8535 659.329C14.4974 659.298 16.112 658.893 17.5734 658.146C44.0801 641.743 63.6737 619.861 71.7329 589.145C72.3878 587.433 73.1855 585.778 74.1174 584.197C77.3707 590.941 80.2358 596.898 83.1194 602.854L85.7072 602.506C88.1102 590.63 91.1601 578.827 92.7128 566.841C94.8385 550.347 94.5613 533.853 88.6093 518.037C81.4003 498.519 67.9621 485.818 47.2225 481.383C24.271 476.297 0.388016 477.123 -22.1498 483.784L-107.252 516.314ZM70.2726 446.306L72.1211 444.107C96.5576 465.622 126.318 466.923 156.466 466.63C161.863 466.63 165.523 464.798 165.708 458.951C165.967 447.149 167.797 435.126 165.985 423.58C160.68 389.969 137.445 367.94 114.34 348.001C103.415 355.148 93.2859 361.911 83.027 368.435C74.7459 373.713 65.9473 378.222 57.9805 383.885C40.679 396.2 34.0615 411.906 38.6642 427.869C44.4683 447.9 63.0822 463.588 82.7312 464.944L70.2726 446.306ZM113.36 299.544C113.804 314.536 125.246 331.983 138.111 336.785C137.852 332.551 137.612 328.482 137.26 323.003C154.081 337.756 172.64 340.377 192.511 336.07C210.514 332.166 218.74 317.743 211.938 300.882C209.276 294.321 204.23 288.603 199.793 282.867C196.263 278.34 192.548 279.037 187.095 281.639C174.608 287.976 161.503 293.036 147.981 296.74C136.817 299.544 124.839 298.848 113.268 299.581L113.36 299.544Z" fill="#D8E6E5"/>
</svg>
