<svg width="67" height="25" viewBox="0 0 67 25" fill="none" xmlns="http://www.w3.org/2000/svg">
<path d="M5.04832 7.57019C4.91797 7.57019 4.88538 7.50503 4.95056 7.40729L5.63488 6.52764C5.70006 6.42991 5.86299 6.36475 5.99334 6.36475H17.6269C17.7572 6.36475 17.7898 6.46249 17.7247 6.56022L17.1707 7.40729C17.1055 7.50503 16.9426 7.60277 16.8448 7.60277L5.04832 7.57019Z" fill="#00ACD7"/>
<path d="M0.130348 10.567C0 10.567 -0.032587 10.5019 0.032587 10.4041L0.716914 9.52447C0.782088 9.42673 0.945022 9.36157 1.07537 9.36157H15.935C16.0654 9.36157 16.1306 9.45931 16.098 9.55705L15.8373 10.339C15.8047 10.4693 15.6743 10.5344 15.544 10.5344L0.130348 10.567Z" fill="#00ACD7"/>
<path d="M8.01511 13.5641C7.88477 13.5641 7.85218 13.4663 7.91735 13.3686L8.37357 12.5541C8.43874 12.4564 8.56909 12.3586 8.69944 12.3586H15.2168C15.3472 12.3586 15.4124 12.4564 15.4124 12.5867L15.3472 13.3686C15.3472 13.4989 15.2168 13.5967 15.1191 13.5967L8.01511 13.5641Z" fill="#00ACD7"/>
<path d="M41.8503 6.98322C39.7974 7.50449 38.3961 7.89545 36.3757 8.41672C35.8869 8.54704 35.8543 8.57962 35.4307 8.09093C34.9419 7.53707 34.5835 7.1787 33.8991 6.8529C31.8461 5.84293 29.8583 6.13615 28.0009 7.3416C25.785 8.7751 24.6444 10.8928 24.677 13.5317C24.7096 16.1381 26.5019 18.2883 29.0763 18.6467C31.2922 18.9399 33.1496 18.158 34.616 16.4965C34.9093 16.1381 35.17 15.7471 35.4959 15.291C34.3228 15.291 32.8563 15.291 29.2066 15.291C28.5223 15.291 28.3593 14.8675 28.5874 14.3136C29.0111 13.3037 29.7932 11.6095 30.2494 10.7625C30.3471 10.567 30.5753 10.2412 31.0641 10.2412C32.726 10.2412 38.8523 10.2412 42.9257 10.2412C42.8605 11.1208 42.8605 12.0005 42.7302 12.8801C42.3717 15.2259 41.4919 17.3761 40.0581 19.2657C37.7118 22.3608 34.6486 24.283 30.7708 24.8043C27.5773 25.2278 24.6118 24.6088 22.0049 22.654C19.5934 20.8296 18.2248 18.4187 17.8663 15.4213C17.4427 11.8702 18.4855 8.67736 20.6362 5.87551C22.9499 2.84561 26.0131 0.923413 29.7606 0.239241C32.8238 -0.314613 35.7566 0.043763 38.3961 1.83564C40.1232 2.97593 41.3615 4.53975 42.1762 6.42937C42.3717 6.72258 42.2414 6.88548 41.8503 6.98322Z" fill="#00ACD7"/>
<path d="M52.6347 25.0001C49.6693 24.9349 46.9646 24.0878 44.6835 22.1331C42.7609 20.4715 41.5552 18.3538 41.1641 15.8452C40.5775 12.1637 41.5877 8.90574 43.8037 6.00615C46.1825 2.87851 49.0502 1.24953 52.928 0.565357C56.2519 -0.021076 59.3802 0.30472 62.2153 2.22692C64.7897 3.98622 66.3864 6.36453 66.8101 9.49217C67.364 13.8904 66.0931 17.4742 63.0626 20.5367C60.9118 22.7195 58.2723 24.0878 55.2417 24.7068C54.3618 24.8697 53.482 24.9023 52.6347 25.0001ZM60.3904 11.8379C60.3578 11.4144 60.3578 11.0886 60.2927 10.7628C59.7061 7.53739 56.7407 5.71294 53.6449 6.42969C50.6143 7.11386 48.6591 9.03605 47.9422 12.0985C47.3556 14.6397 48.5939 17.2135 50.9402 18.2561C52.7325 19.038 54.5248 18.9403 56.2519 18.0606C58.8263 16.7248 60.2275 14.6397 60.3904 11.8379Z" fill="#00ACD7"/>
</svg>
