<svg width="138" height="52" viewBox="0 0 138 52" fill="none" xmlns="http://www.w3.org/2000/svg">
<path d="M10.4152 15.6075C10.1465 15.6075 10.0793 15.4732 10.2137 15.2717L11.6247 13.4579C11.759 13.2564 12.095 13.1221 12.3638 13.1221H36.3506C36.6193 13.1221 36.6865 13.3236 36.5522 13.5251L35.4099 15.2717C35.2755 15.4732 34.9396 15.6747 34.738 15.6747L10.4152 15.6075Z" fill="#00ACD7"/>
<path d="M0.26876 21.7877C0 21.7877 -0.06719 21.6534 0.06719 21.4518L1.47818 19.6381C1.61256 19.4366 1.94851 19.3022 2.21727 19.3022H32.8559C33.1247 19.3022 33.259 19.5038 33.1919 19.7053L32.6543 21.3175C32.5871 21.5862 32.3184 21.7205 32.0496 21.7205L0.26876 21.7877Z" fill="#00ACD7"/>
<path d="M16.5285 27.9679C16.2598 27.9679 16.1926 27.7664 16.327 27.5648L17.2676 25.8855C17.402 25.6839 17.6708 25.4824 17.9395 25.4824H31.3775C31.6463 25.4824 31.7807 25.6839 31.7807 25.9526L31.6463 27.5648C31.6463 27.8335 31.3775 28.0351 31.1759 28.0351L16.5285 27.9679Z" fill="#00ACD7"/>
<path d="M86.2723 14.3985C82.0393 15.4733 79.1501 16.2794 74.9844 17.3542C73.9765 17.6229 73.9093 17.69 73.0358 16.6824C72.028 15.5404 71.2889 14.8015 69.8779 14.1298C65.645 12.0473 61.5464 12.6519 57.7165 15.1374C53.1476 18.0931 50.796 22.4594 50.8632 27.9006C50.9303 33.2746 54.6258 37.7081 59.9338 38.447C64.5027 39.0516 68.3325 37.4394 71.3561 34.0135C71.9608 33.2746 72.4983 32.4685 73.1702 31.528C70.7514 31.528 67.7278 31.528 60.2026 31.528C58.7916 31.528 58.4556 30.6548 58.9259 29.5128C59.7994 27.4304 61.412 23.9373 62.3526 22.1907C62.5542 21.7877 63.0245 21.1159 64.0324 21.1159C67.4591 21.1159 80.0908 21.1159 88.4895 21.1159C88.3552 22.9297 88.3552 24.7434 88.0864 26.5571C87.3473 31.3937 85.5332 35.8272 82.5768 39.7234C77.7392 46.105 71.4233 50.0683 63.4277 51.1431C56.8431 52.0164 50.7288 50.74 45.3536 46.7095C40.3815 42.9478 37.5595 37.9768 36.8204 31.7967C35.947 24.4747 38.0971 17.8916 42.5316 12.1145C47.3021 5.86727 53.6179 1.90395 61.3448 0.493283C67.6607 -0.648689 73.7078 0.0902335 79.1501 3.78485C82.7112 6.13597 85.2644 9.36036 86.9442 13.2565C87.3473 13.8611 87.0786 14.1969 86.2723 14.3985Z" fill="#00ACD7"/>
<path d="M108.513 51.5462C102.398 51.4118 96.8216 49.6653 92.1183 45.6348C88.1541 42.2089 85.6681 37.8425 84.8618 32.6701C83.6524 25.0793 85.7353 18.3618 90.3042 12.3833C95.2091 5.93448 101.122 2.57574 109.117 1.16507C115.971 -0.0440731 122.421 0.627675 128.267 4.59099C133.575 8.21843 136.867 13.1222 137.74 19.571C138.883 28.6396 136.262 36.0288 130.013 42.3432C125.579 46.8439 120.137 49.6653 113.888 50.9416C112.074 51.2775 110.26 51.3446 108.513 51.5462ZM124.504 24.4076C124.437 23.5343 124.437 22.8625 124.302 22.1908C123.093 15.5405 116.979 11.7787 110.596 13.2565C104.347 14.6672 100.316 18.6305 98.8373 24.945C97.6279 30.1846 100.181 35.4914 105.019 37.641C108.714 39.2532 112.41 39.0517 115.971 37.2379C121.279 34.4838 124.168 30.1846 124.504 24.4076Z" fill="#00ACD7"/>
</svg>
