<svg width="192" height="351" viewBox="0 0 192 351" fill="none" xmlns="http://www.w3.org/2000/svg">
<path d="M12.7365 181.193C9.54242 181.467 6.32671 181.054 3.30547 179.982C15.3842 176.117 26.3162 171.446 35.8503 164.122C39.5152 161.345 42.7685 158.064 45.5132 154.375C49.9195 148.307 49.0692 141.736 43.3938 136.808C40.0311 133.89 35.9791 131.751 32.2363 129.271L21.3816 122.107C8.24001 133.188 -0.649899 147.012 5.30892 165.661L5.16719 165.745C3.32479 163.671 1.10231 161.816 -0.295593 159.471C-5.02399 151.541 -5.95808 142.722 -5.44916 133.703C-5.33965 131.725 -5.78415 130.785 -7.5428 129.748C-14.629 125.586 -18.3717 119.37 -18.4941 110.705C-8.29651 119.595 2.18456 121.502 13.619 113.346C13.4322 114.989 13.2583 116.516 13.0715 118.171C17.5809 116.168 21.2463 110.596 21.8648 104.804C2.53887 105.706 -11.8074 99.2062 -16.4649 78.5984C-6.51853 86.3287 5.01903 85.5364 16.5179 85.2851C21.1368 85.1821 25.775 85.7361 30.8255 86.0131C30.9351 85.0404 31.1412 83.1786 31.3473 81.3105C35.1739 83.0111 37.5638 87.3144 36.5847 92.2167C35.6248 97.0095 33.9306 101.667 32.4747 106.389C31.7081 108.837 30.6452 111.195 29.943 113.662C29.5887 114.905 29.7433 116.297 29.6853 117.269C47.1559 109.745 64.1756 109.61 81.8652 117.302C81.6462 115.801 81.6462 113.92 81.0793 112.232C79.4624 107.465 77.4718 102.82 75.9257 98.0596C74.6373 94.0333 73.9931 89.8139 75.7905 85.7812C76.5635 84.029 78.0773 82.6053 79.9648 81.3491C80.171 83.1851 80.3707 85.021 80.4931 86.0904C85.5951 85.8456 90.4266 85.5621 95.258 85.3818C101.256 85.1627 107.272 85.2594 113.244 84.7698C118.179 84.3639 120.395 80.6598 118.224 76.1504C116.784 73.1796 114.697 70.569 112.117 68.5103C103.137 61.553 92.7135 57.5589 81.6397 55.4653C55.8719 50.6403 30.2329 50.6532 4.83221 57.7844C-1.2941 59.5044 -7.01456 62.1392 -11.7881 67.4924C-11.627 60.9925 -9.63644 55.6779 -5.74549 51.5228C-1.97694 47.503 2.6806 44.3207 6.82922 40.6295C7.90503 39.676 9.14188 38.3361 9.29005 36.9704C10.733 23.4423 22.947 13.8373 25.949 11.0802C29.5436 7.78189 43.1297 2.75716 55.64 0C53.469 2.02278 50.583 7.58863 49.5588 10.0044C49.2417 10.8766 49.0256 11.7822 48.9146 12.7036C49.0627 14.4751 50.7054 15.4929 53.1019 16.0212C58.6999 17.2451 60.7098 15.7377 68.8202 14.984C92.5138 12.768 114.107 17.4448 131.951 34.3099C134.918 37.2555 137.635 40.4423 140.075 43.8376C125.716 38.626 111.208 38.684 96.5658 41.1448C103.929 42.2013 111.35 42.9743 118.649 44.3658C137.943 48.0764 155.755 54.9564 169.701 69.5539C176.839 77.0266 181.857 85.7361 185.072 96.5457C173.876 88.7187 162.731 82.8759 149.177 82.7406C149.963 83.4685 150.717 84.2351 151.541 84.9244C165.527 96.6166 177.599 109.913 184.769 126.894C195.224 151.67 194.02 175.659 178.359 198.103C175.589 202.097 171.64 205.247 168.355 208.919C167.325 210.004 166.651 211.377 166.422 212.855C163.846 249.42 147.444 277.745 116.317 297.316C113.271 299.096 110.061 300.578 106.731 301.742C114.204 290.146 117.869 277.397 119.087 263.914C120.2 250.621 119.495 237.238 116.993 224.135C122.443 233.856 127.88 243.5 136.557 251.095C135.269 246.27 133.768 241.818 133.002 237.232C131.146 226.1 132.402 214.994 133.884 203.907C135.424 192.434 137.002 180.968 138.226 169.462C138.716 164.811 138.303 160.07 138.303 155.29C145.183 163.826 150.904 173.269 154.672 183.918C153.384 155.696 151.368 127.712 131.327 104.998C133.961 117.881 134.374 130.765 133.214 144.513C131.494 143.43 130.251 142.728 129.104 141.897C127.957 141.066 126.804 140.003 125.084 139.372C126.076 141.614 126.862 143.984 128.112 146.072C131.507 151.734 131.977 157.454 130.373 163.916C126.676 178.887 121.625 193.278 114.236 206.826C113.837 207.56 113.302 208.217 112.542 209.325L106.944 199.978C107.62 210.543 109.102 222.074 108.954 233.579C108.644 257.563 102.099 279.555 86.6194 298.585C77.6973 309.536 69.5095 321.132 61.3927 332.727C57.0701 338.886 55.8912 343.743 55.4274 350.597C54.3194 349.309 53.4948 348.426 52.8055 347.486C43.9607 335.794 41.8928 322.826 45.6743 308.834C49.5845 294.327 57.914 282.248 67.0745 270.685C69.6512 267.464 72.2989 264.339 74.9208 261.17C60.9675 271.368 46.1896 279.742 28.8607 285.115C29.6917 283.595 30.1491 282.738 30.6323 281.894C37.2224 270.298 40.9394 258.059 38.1565 244.64C37.4782 241.83 36.5356 239.091 35.3414 236.459C31.5597 227.402 30.3515 217.478 31.8498 207.779C31.9134 207.355 32.0126 206.937 32.1461 206.529C32.275 206.13 32.4618 205.75 32.7388 205.073C33.5956 207.186 34.3429 209.061 35.1159 210.916C38.7685 219.658 45.1138 226.068 52.9344 231.112C53.4535 231.354 54.0213 231.475 54.5942 231.463C55.1671 231.452 55.7298 231.31 56.2391 231.047C65.4769 225.282 72.3053 217.59 75.114 206.793C75.3423 206.192 75.6203 205.61 75.9451 205.054C77.0788 207.425 78.0773 209.518 79.0823 211.612L79.9842 211.49C80.8216 207.315 81.8845 203.167 82.4257 198.954C83.1665 193.156 83.0699 187.358 80.9956 181.799C78.4832 174.938 73.7999 170.474 66.572 168.915C58.5733 167.127 50.2499 167.417 42.3953 169.759L12.7365 181.193ZM74.6051 156.585L75.2493 155.812C83.7656 163.375 94.1372 163.832 104.644 163.729C106.525 163.729 107.801 163.085 107.865 161.03C107.955 156.881 108.593 152.655 107.962 148.597C106.113 136.782 98.0152 129.039 89.9628 122.03C86.1556 124.542 82.6254 126.92 79.0501 129.213C76.1641 131.068 73.0977 132.653 70.3212 134.643C64.2915 138.972 61.9853 144.493 63.5894 150.104C65.6121 157.145 72.0992 162.66 78.947 163.136L74.6051 156.585ZM89.6213 104.998C89.7759 110.267 93.7635 116.4 98.2471 118.088C98.1569 116.6 98.0732 115.169 97.9508 113.243C103.813 118.429 110.281 119.35 117.206 117.836C123.48 116.464 126.347 111.394 123.976 105.468C123.049 103.162 121.29 101.152 119.744 99.1354C118.514 97.5442 117.219 97.789 115.318 98.7038C110.967 100.931 106.399 102.71 101.687 104.012C97.7962 104.998 93.6218 104.753 89.5891 105.01L89.6213 104.998Z" fill="#D8E6E5"/>
</svg>
