<svg width="45" height="46" viewBox="0 0 45 46" fill="none" xmlns="http://www.w3.org/2000/svg">
<path d="M22.2325 0.000376252C20.377 0.0090935 18.6049 0.169094 17.0457 0.448041C12.4525 1.26847 11.6185 2.9857 11.6185 6.15256V10.335H22.4729V11.7292H11.6185H7.54496C4.39037 11.7292 1.62812 13.6462 0.764123 17.293C-0.232485 21.4731 -0.27669 24.0816 0.764123 28.4462C1.53569 31.6952 3.3783 34.0101 6.53289 34.0101H10.2649V28.9962C10.2649 25.374 13.3647 22.1789 17.0457 22.1789H27.8875C30.9054 22.1789 33.3147 19.6666 33.3147 16.6023V6.15256C33.3147 3.1785 30.8331 0.9444 27.8875 0.448041C26.0228 0.134225 24.0881 -0.008341 22.2325 0.000376252ZM16.3626 3.36425C17.4838 3.36425 18.3993 4.30507 18.3993 5.46188C18.3993 6.61459 17.4838 7.54672 16.3626 7.54672C15.2374 7.54672 14.3258 6.61459 14.3258 5.46188C14.3258 4.30507 15.2374 3.36425 16.3626 3.36425Z" fill="url(#paint0_linear_143_50)"/>
<path d="M34.667 11.7292V16.6024C34.667 20.3805 31.4988 23.5604 27.8861 23.5604H17.0444C14.0746 23.5604 11.6172 26.1301 11.6172 29.137V39.5868C11.6172 42.5608 14.1751 44.3101 17.0444 45.1634C20.4803 46.1848 23.7751 46.3694 27.8861 45.1634C30.6188 44.3635 33.3133 42.7536 33.3133 39.5868V35.4043H22.4716V34.0101H33.3133H38.7405C41.8951 34.0101 43.0706 31.7855 44.1677 28.4463C45.301 25.0087 45.2527 21.7029 44.1677 17.2931C43.3881 14.118 41.8991 11.7292 38.7405 11.7292H34.667ZM28.5693 38.1926C29.6945 38.1926 30.606 39.1247 30.606 40.2774C30.606 41.4342 29.6945 42.3751 28.5693 42.3751C27.4481 42.3751 26.5325 41.4342 26.5325 40.2774C26.5325 39.1247 27.4481 38.1926 28.5693 38.1926Z" fill="url(#paint1_linear_143_50)"/>
<defs>
<linearGradient id="paint0_linear_143_50" x1="3.54272e-08" y1="3.11142e-08" x2="25.2597" y2="21.2899" gradientUnits="userSpaceOnUse">
<stop stop-color="#5A9FD4"/>
<stop offset="1" stop-color="#306998"/>
</linearGradient>
<linearGradient id="paint1_linear_143_50" x1="28.3084" y1="39.9258" x2="19.1979" y2="27.2986" gradientUnits="userSpaceOnUse">
<stop stop-color="#FFD43B"/>
<stop offset="1" stop-color="#FFE873"/>
</linearGradient>
</defs>
</svg>
