<svg width="81" height="82" viewBox="0 0 81 82" fill="none" xmlns="http://www.w3.org/2000/svg">
<path d="M40.0177 0.000670711C36.6777 0.0162101 33.4881 0.301428 30.6816 0.798681C22.414 2.26119 20.9129 5.32233 20.9129 10.9676V18.4233H40.4503V20.9085H20.9129H13.5806C7.90249 20.9085 2.93055 24.3258 1.37539 30.8267C-0.418464 38.2781 -0.498032 42.928 1.37539 50.7085C2.76418 56.5 6.08081 60.6266 11.7589 60.6266H18.4764V51.6889C18.4764 45.2319 24.0559 39.5364 30.6816 39.5364H50.1963C55.6285 39.5364 59.9651 35.0579 59.9651 29.5954V10.9676C59.9651 5.66602 55.4983 1.68349 50.1963 0.798681C46.8401 0.239271 43.3577 -0.0148687 40.0177 0.000670711ZM29.452 5.99715C31.4701 5.99715 33.1181 7.67426 33.1181 9.73639C33.1181 11.7912 31.4701 13.4528 29.452 13.4528C27.4267 13.4528 25.7859 11.7912 25.7859 9.73639C25.7859 7.67426 27.4267 5.99715 29.452 5.99715Z" fill="url(#paint0_linear_143_128)"/>
<path d="M62.4008 20.9084V29.5954C62.4008 36.3302 56.6983 41.9987 50.1956 41.9987H30.6808C25.3354 41.9987 20.9121 46.5796 20.9121 51.9396V70.5675C20.9121 75.8691 25.5163 78.9874 30.6808 80.5084C36.8653 82.3292 42.7959 82.6583 50.1956 80.5084C55.1142 79.0825 59.9643 76.2127 59.9643 70.5675V63.1118H40.4496V60.6265H59.9643H69.733C75.4112 60.6265 77.5271 56.6608 79.5018 50.7084C81.5416 44.5805 81.4548 38.6875 79.5018 30.8266C78.0985 25.1667 75.4184 20.9084 69.733 20.9084H62.4008ZM51.4252 68.0822C53.4505 68.0822 55.0913 69.7439 55.0913 71.7987C55.0913 73.8608 53.4505 75.5379 51.4252 75.5379C49.4071 75.5379 47.7591 73.8608 47.7591 71.7987C47.7591 69.7439 49.4071 68.0822 51.4252 68.0822Z" fill="url(#paint1_linear_143_128)"/>
<defs>
<linearGradient id="paint0_linear_143_128" x1="6.37676e-08" y1="5.54645e-08" x2="45.1001" y2="38.3821" gradientUnits="userSpaceOnUse">
<stop stop-color="#5A9FD4"/>
<stop offset="1" stop-color="#306998"/>
</linearGradient>
<linearGradient id="paint1_linear_143_128" x1="50.9557" y1="71.1719" x2="34.7654" y2="48.5137" gradientUnits="userSpaceOnUse">
<stop stop-color="#FFD43B"/>
<stop offset="1" stop-color="#FFE873"/>
</linearGradient>
</defs>
</svg>
