<svg width="24" height="24" viewBox="0 0 24 24" fill="none" xmlns="http://www.w3.org/2000/svg">
<g clip-path="url(#clip0_157_41)">
<path d="M23.65 12C23.65 18.4341 18.4341 23.65 12 23.65C5.56588 23.65 0.35 18.4341 0.35 12C0.35 5.56588 5.56588 0.35 12 0.35C18.4341 0.35 23.65 5.56588 23.65 12Z" stroke="#849C9C" stroke-width="0.7"/>
<mask id="path-2-inside-1_157_41" fill="white">
<path d="M17.2478 6.75083C17.1065 6.75684 16.9691 6.79497 16.8451 6.84314C16.7224 6.89098 16.0159 7.18352 14.9727 7.61625C13.9295 8.04899 12.5734 8.6125 11.2292 9.17127C8.54063 10.2888 5.89868 11.3884 5.89868 11.3884L5.91793 11.3813C5.91793 11.3813 5.75848 11.433 5.59681 11.5423C5.51598 11.5969 5.42902 11.6675 5.35781 11.7703C5.28661 11.8731 5.23456 12.0189 5.25417 12.1731C5.32308 12.7146 5.90151 12.8682 5.90151 12.8682L5.90378 12.8693L8.4852 13.7264C8.55101 13.9395 9.26815 16.2617 9.4259 16.7535C9.51303 17.0254 9.59457 17.1823 9.67963 17.2893C9.72219 17.3428 9.7668 17.3842 9.81612 17.4145C9.83571 17.4266 9.85632 17.4356 9.87672 17.4437C9.87715 17.4438 9.87742 17.4435 9.87785 17.4437C9.88036 17.4447 9.88271 17.4448 9.88521 17.4459L9.87842 17.4442C9.88315 17.4461 9.88783 17.4492 9.89258 17.4508C9.90178 17.4539 9.90742 17.4538 9.91919 17.4563C10.2148 17.5564 10.4595 17.3706 10.4595 17.3706L10.4697 17.3629L12.0555 15.9359L14.629 17.8827L14.6612 17.897C15.1117 18.091 15.5191 17.9828 15.7447 17.8047C15.9703 17.6266 16.059 17.3969 16.059 17.3969L16.0686 17.3728L17.9597 7.81022C18.008 7.59628 18.0149 7.41136 17.9693 7.24426C17.9236 7.07716 17.8128 6.9319 17.6737 6.85138C17.5345 6.77087 17.389 6.74482 17.2478 6.75083ZM17.263 7.32283C17.3204 7.32026 17.3629 7.32662 17.3763 7.33437C17.3897 7.34213 17.3957 7.34111 17.4086 7.38822C17.4215 7.43534 17.4284 7.53457 17.3933 7.68988L17.3922 7.69318L15.5119 17.2002C15.5074 17.2098 15.4683 17.2978 15.3788 17.3684C15.2875 17.4404 15.186 17.4967 14.9167 17.3871L12.1025 15.2578L12.0232 15.1974L12.0215 15.199L11.1799 14.5864L15.9095 9.18776C15.9458 9.14638 15.969 9.09568 15.9763 9.04178C15.9836 8.98788 15.9746 8.93309 15.9504 8.88403C15.9263 8.83498 15.888 8.79376 15.8403 8.76536C15.7925 8.73696 15.7372 8.72259 15.6812 8.724C15.6265 8.72538 15.5733 8.74176 15.5278 8.77126L8.68399 13.1978L6.0986 12.339C6.0986 12.339 5.84187 12.2004 5.82958 12.1038C5.8289 12.0985 5.82587 12.1033 5.83921 12.0841C5.85255 12.0648 5.88609 12.0323 5.92813 12.0038C6.01221 11.947 6.10823 11.9126 6.10823 11.9126L6.11786 11.9093L6.12748 11.9055C6.12748 11.9055 8.76957 10.8058 11.458 9.68833C12.8022 9.12959 14.158 8.56649 15.201 8.13386C16.2437 7.70135 16.9971 7.39003 17.0609 7.36514C17.1335 7.33693 17.2057 7.32541 17.263 7.32283ZM14.1266 10.3537L10.5399 14.4479L10.5382 14.4496C10.5326 14.4561 10.5273 14.4629 10.5224 14.4699C10.5167 14.4775 10.5114 14.4854 10.5065 14.4935C10.4863 14.5267 10.4734 14.5635 10.4686 14.6018C10.4686 14.6025 10.4686 14.6032 10.4686 14.604L10.0013 16.6425C9.99355 16.6205 9.98811 16.6124 9.97979 16.5865V16.5859C9.83139 16.1233 9.15479 13.9332 9.06117 13.6303L14.1266 10.3537ZM10.9449 15.1188L11.5894 15.5881L10.6424 16.4398L10.9449 15.1188Z"/>
</mask>
<path d="M16.8451 6.84314L16.4105 5.72459L16.4092 5.72512L16.8451 6.84314ZM14.9727 7.61625L15.4325 8.72468L14.9727 7.61625ZM5.89868 11.3884L5.48131 10.2633L5.89868 12.5884V11.3884ZM5.91793 11.3813L6.33531 12.5064L5.54775 10.2398L5.91793 11.3813ZM5.59681 11.5423L4.92477 10.5481H4.92477L5.59681 11.5423ZM5.25417 12.1731L4.06377 12.3245H4.06377L5.25417 12.1731ZM5.90151 12.8682L6.42537 11.7885L6.32129 11.738L6.20948 11.7084L5.90151 12.8682ZM5.90378 12.8693L5.37992 13.9489L5.45082 13.9833L5.52561 14.0081L5.90378 12.8693ZM8.4852 13.7264L9.63172 13.3722L9.44943 12.7822L8.86336 12.5876L8.4852 13.7264ZM9.4259 16.7535L10.5687 16.3873L10.5686 16.387L9.4259 16.7535ZM9.67963 17.2893L10.619 16.5425L10.619 16.5425L9.67963 17.2893ZM9.81612 17.4145L9.18793 18.437L9.188 18.437L9.81612 17.4145ZM9.87672 17.4437L10.3509 16.3413L10.3342 16.3341L10.3173 16.3275L9.87672 17.4437ZM9.87785 17.4437L10.3499 16.3404L10.3493 16.3402L9.87785 17.4437ZM9.88521 17.4459L9.60244 18.6121L10.3421 16.3362L9.88521 17.4459ZM9.87842 17.4442L10.1612 16.278L9.44058 18.5615L9.87842 17.4442ZM9.89258 17.4508L10.2789 16.3147L10.2787 16.3146L9.89258 17.4508ZM9.91919 17.4563L10.3042 16.3197L10.2362 16.2967L10.1659 16.2819L9.91919 17.4563ZM10.4595 17.3706L9.73667 16.4127L9.73357 16.415L10.4595 17.3706ZM10.4697 17.3629L11.1925 18.3208L11.2339 18.2896L11.2724 18.2549L10.4697 17.3629ZM12.0555 15.9359L12.7794 14.9789L11.9893 14.3811L11.2528 15.0439L12.0555 15.9359ZM14.629 17.8827L13.905 18.8397L14.016 18.9237L14.1433 18.98L14.629 17.8827ZM14.6612 17.897L14.1756 18.9944L14.1865 18.9991L14.6612 17.897ZM15.7447 17.8047L16.4882 18.7465L15.7447 17.8047ZM16.059 17.3969L14.9441 16.953L14.9396 16.9644L16.059 17.3969ZM16.0686 17.3728L17.1835 17.8167L17.2244 17.714L17.2458 17.6056L16.0686 17.3728ZM17.9597 7.81022L16.7892 7.54549L16.7856 7.56141L16.7825 7.57742L17.9597 7.81022ZM17.9693 7.24426L16.8117 7.5604V7.5604L17.9693 7.24426ZM17.263 7.32283L17.2092 6.12404L17.263 7.32283ZM17.3763 7.33437L16.7752 8.37299L16.7753 8.37299L17.3763 7.33437ZM17.4086 7.38822L16.251 7.70433L16.251 7.70434L17.4086 7.38822ZM17.3933 7.68988L18.5282 8.07988L18.5494 8.0182L18.5638 7.95458L17.3933 7.68988ZM17.3922 7.69318L16.2573 7.30318L16.2308 7.38033L16.215 7.46036L17.3922 7.69318ZM15.5119 17.2002L16.6 17.7063L16.661 17.575L16.6891 17.4331L15.5119 17.2002ZM15.3788 17.3684L14.6352 16.4265L14.6352 16.4265L15.3788 17.3684ZM14.9167 17.3871L14.1926 18.344L14.3184 18.4392L14.4644 18.4986L14.9167 17.3871ZM12.1025 15.2578L11.375 16.2122L11.3784 16.2148L12.1025 15.2578ZM12.0232 15.1974L12.7507 14.2431L11.9291 13.6168L11.1877 14.3361L12.0232 15.1974ZM12.0215 15.199L11.3152 16.1692L12.1319 16.7637L12.857 16.0604L12.0215 15.199ZM11.1799 14.5864L10.2773 13.7956L9.41179 14.7835L10.4736 15.5565L11.1799 14.5864ZM15.9095 9.18776L15.0079 8.39585L15.0069 8.39701L15.9095 9.18776ZM15.6812 8.724L15.6511 7.52438L15.651 7.52438L15.6812 8.724ZM15.5278 8.77126L16.1795 9.77886L16.1801 9.77846L15.5278 8.77126ZM8.68399 13.1978L8.30569 14.3367L8.85218 14.5182L9.33571 14.2054L8.68399 13.1978ZM6.0986 12.339L5.5285 13.3949L5.62078 13.4448L5.7203 13.4778L6.0986 12.339ZM5.82958 12.1038L7.01999 11.9524L7.01997 11.9522L5.82958 12.1038ZM5.83921 12.0841L4.85261 11.401L4.85251 11.4011L5.83921 12.0841ZM5.92813 12.0038L6.60018 12.998L6.60018 12.998L5.92813 12.0038ZM6.10823 11.9126L5.71952 10.7773L5.71163 10.78L5.70378 10.7828L6.10823 11.9126ZM6.11786 11.9093L6.50657 13.0446L6.53507 13.0349L6.56304 13.0237L6.11786 11.9093ZM6.12748 11.9055L6.57267 13.0198L6.58065 13.0167L6.58859 13.0133L6.12748 11.9055ZM15.201 8.13386L15.6608 9.24228H15.6608L15.201 8.13386ZM17.0609 7.36514L16.6263 6.24659L16.6248 6.24717L17.0609 7.36514ZM14.1266 10.3537L15.0292 11.1445L13.4749 9.34617L14.1266 10.3537ZM10.5399 14.4479L11.3756 15.3091L11.4105 15.2752L11.4425 15.2386L10.5399 14.4479ZM10.5382 14.4496L9.70254 13.5884L9.66273 13.627L9.62664 13.6691L10.5382 14.4496ZM10.5224 14.4699L11.4836 15.1882L11.4926 15.1762L11.5013 15.1639L10.5224 14.4699ZM10.5065 14.4935L11.5322 15.1164L11.5356 15.1108L10.5065 14.4935ZM10.4686 14.6018L9.27821 14.4498L9.26886 14.5231L9.26856 14.5969L10.4686 14.6018ZM10.4686 14.604L11.6382 14.872L11.6691 14.7373L11.6685 14.5991L10.4686 14.604ZM10.0013 16.6425L8.86964 17.0417L10.2463 20.9449L11.171 16.9106L10.0013 16.6425ZM9.97979 16.5865H8.77979V16.7739L8.83696 16.9524L9.97979 16.5865ZM9.97979 16.5859H11.1798V16.3982L11.1224 16.2194L9.97979 16.5859ZM9.06117 13.6303L8.40943 12.6227L7.64632 13.1163L7.91468 13.9846L9.06117 13.6303ZM10.9449 15.1188L11.6512 14.1487L10.181 13.0783L9.77512 14.851L10.9449 15.1188ZM11.5894 15.5881L12.3918 16.4803L13.4931 15.4898L12.2957 14.618L11.5894 15.5881ZM10.6424 16.4398L9.47269 16.1719L8.62679 19.8666L11.4449 17.332L10.6424 16.4398ZM17.1967 5.55191C16.8794 5.56542 16.6069 5.64831 16.4105 5.72459L17.2797 7.96169C17.2908 7.95736 17.2999 7.95415 17.3072 7.95181C17.3145 7.94947 17.3193 7.94821 17.3217 7.94764C17.327 7.94634 17.3187 7.94889 17.2988 7.94974L17.1967 5.55191ZM16.4092 5.72512C16.2706 5.77914 15.5442 6.08008 14.5129 6.50783L15.4325 8.72468C16.4877 8.28696 17.1741 8.00282 17.281 7.96116L16.4092 5.72512ZM14.5129 6.50783C13.4693 6.94076 12.1128 7.50442 10.7686 8.06319L11.6898 10.2794C13.034 9.72058 14.3898 9.15722 15.4325 8.72468L14.5129 6.50783ZM10.7686 8.06319C9.42414 8.62203 8.0914 9.17636 7.09479 9.59098C6.59647 9.79829 6.18218 9.97068 5.89246 10.0912C5.7476 10.1515 5.63389 10.1988 5.55638 10.2311C5.51763 10.2472 5.48793 10.2596 5.46792 10.2679C5.45791 10.2721 5.45033 10.2752 5.44525 10.2773C5.4427 10.2784 5.44079 10.2792 5.43951 10.2797C5.43887 10.28 5.43838 10.2802 5.43806 10.2803C5.4379 10.2804 5.43778 10.2805 5.4377 10.2805C5.43766 10.2805 5.43763 10.2805 5.43761 10.2805C5.43759 10.2805 5.66357 10.2117 5.89868 10.1884V12.5884C6.13378 12.5652 6.35979 12.4963 6.35981 12.4963C6.35983 12.4963 6.35986 12.4963 6.3599 12.4962C6.35998 12.4962 6.3601 12.4962 6.36026 12.4961C6.36058 12.496 6.36106 12.4958 6.3617 12.4955C6.36298 12.495 6.36489 12.4942 6.36743 12.4931C6.37251 12.491 6.38009 12.4878 6.39009 12.4837C6.41009 12.4754 6.43978 12.463 6.47852 12.4469C6.556 12.4146 6.66969 12.3673 6.81452 12.307C7.10418 12.1865 7.51841 12.0142 8.01665 11.8069C9.01314 11.3923 10.3456 10.8381 11.6898 10.2794L10.7686 8.06319ZM6.31605 12.5135L6.33531 12.5064L5.50056 10.2562L5.48131 10.2633L6.31605 12.5135ZM5.91793 11.3813C5.54775 10.2398 5.54757 10.2399 5.54739 10.2399C5.54733 10.2399 5.54715 10.24 5.54702 10.24C5.54678 10.2401 5.54653 10.2402 5.54628 10.2403C5.54578 10.2404 5.54526 10.2406 5.54474 10.2408C5.54369 10.2411 5.5426 10.2415 5.54146 10.2419C5.53918 10.2426 5.53673 10.2434 5.53411 10.2443C5.52886 10.2461 5.52291 10.2481 5.51631 10.2504C5.50313 10.255 5.48724 10.2607 5.46901 10.2675C5.43274 10.2811 5.38611 10.2997 5.33231 10.3235C5.22794 10.3697 5.08076 10.4427 4.92477 10.5481L6.26886 12.5364C6.27454 12.5326 6.28791 12.5251 6.30369 12.5181C6.30996 12.5153 6.3133 12.5141 6.31198 12.5146C6.31122 12.5149 6.30905 12.5157 6.30522 12.517C6.3033 12.5177 6.30093 12.5185 6.2981 12.5195C6.29668 12.5199 6.29515 12.5204 6.29349 12.521C6.29265 12.5213 6.29179 12.5215 6.2909 12.5218C6.29045 12.522 6.29 12.5221 6.28953 12.5223C6.2893 12.5224 6.28907 12.5224 6.28883 12.5225C6.28871 12.5226 6.28853 12.5226 6.28848 12.5226C6.2883 12.5227 6.28812 12.5227 5.91793 11.3813ZM4.92477 10.5481C4.77755 10.6476 4.5589 10.8161 4.3712 11.0872L6.34443 12.4534C6.29914 12.5188 6.25442 12.5462 6.26886 12.5364L4.92477 10.5481ZM4.3712 11.0872C4.16931 11.3788 3.99914 11.8166 4.06377 12.3245L6.44457 12.0216C6.45765 12.1243 6.4454 12.2129 6.42633 12.2801C6.40778 12.3455 6.37963 12.4025 6.34443 12.4534L4.3712 11.0872ZM4.06377 12.3245C4.15523 13.0433 4.59409 13.4842 4.92059 13.7103C5.08408 13.8235 5.23839 13.8979 5.35165 13.9447C5.40956 13.9686 5.4603 13.9868 5.50088 14.0002C5.52127 14.0069 5.53938 14.0125 5.55486 14.0171C5.56261 14.0194 5.56974 14.0214 5.57619 14.0232C5.57942 14.0241 5.58248 14.025 5.58537 14.0258C5.58682 14.0262 5.58822 14.0265 5.58958 14.0269C5.59026 14.0271 5.59093 14.0273 5.59159 14.0274C5.59192 14.0275 5.59241 14.0277 5.59257 14.0277C5.59306 14.0278 5.59354 14.028 5.90151 12.8682C6.20948 11.7084 6.20996 11.7085 6.21043 11.7086C6.21059 11.7086 6.21106 11.7088 6.21138 11.7089C6.212 11.709 6.21262 11.7092 6.21323 11.7094C6.21445 11.7097 6.21564 11.71 6.21681 11.7103C6.21915 11.711 6.22138 11.7116 6.22351 11.7122C6.22777 11.7134 6.23163 11.7145 6.23513 11.7155C6.24211 11.7176 6.24772 11.7193 6.25216 11.7208C6.26084 11.7237 6.26585 11.7256 6.26846 11.7267C6.27111 11.7278 6.2765 11.73 6.28677 11.7371C6.30683 11.751 6.42202 11.8444 6.44457 12.0216L4.06377 12.3245ZM5.37765 13.9478L5.37992 13.9489L6.42763 11.7896L6.42537 11.7885L5.37765 13.9478ZM5.52561 14.0081L8.10703 14.8653L8.86336 12.5876L6.28194 11.7304L5.52561 14.0081ZM7.33867 14.0807C7.40274 14.288 8.12291 16.6202 8.28325 17.12L10.5686 16.387C10.4134 15.9033 9.69929 13.5909 9.63172 13.3722L7.33867 14.0807ZM8.28313 17.1197C8.39247 17.4609 8.5289 17.7701 8.74028 18.036L10.619 16.5425C10.6602 16.5944 10.6336 16.5899 10.5687 16.3873L8.28313 17.1197ZM8.74028 18.036C8.84945 18.1733 8.99472 18.3183 9.18793 18.437L10.4443 16.3921C10.5389 16.4502 10.5949 16.5123 10.619 16.5425L8.74028 18.036ZM9.188 18.437C9.29576 18.5032 9.39169 18.5423 9.4361 18.5598L10.3173 16.3275C10.321 16.3289 10.3757 16.3499 10.4442 16.3921L9.188 18.437ZM9.40257 18.546C9.4461 18.5647 9.49183 18.5813 9.53961 18.5953C9.58744 18.6093 9.63582 18.6203 9.68446 18.6282C9.73307 18.6361 9.78026 18.6407 9.8256 18.6426C9.87085 18.6445 9.913 18.6438 9.9515 18.6414C10.0277 18.6367 10.089 18.6255 10.1277 18.6172C10.1471 18.6131 10.1627 18.6093 10.1722 18.6069C10.177 18.6056 10.1809 18.6046 10.1833 18.604C10.1846 18.6036 10.1855 18.6034 10.1862 18.6032C10.1865 18.6031 10.1867 18.6031 10.1869 18.603C10.187 18.603 10.187 18.603 10.1871 18.603C10.1871 18.603 10.1871 18.603 10.1871 18.603C10.1875 18.6029 10.1857 18.6033 10.1836 18.6039C10.1813 18.6045 10.1775 18.6055 10.1727 18.6067C10.1634 18.6091 10.148 18.6129 10.1288 18.617C10.0905 18.6252 10.0296 18.6364 9.95381 18.6412C9.91552 18.6436 9.87356 18.6444 9.8285 18.6426C9.78335 18.6407 9.73631 18.6363 9.68783 18.6285C9.63933 18.6207 9.59105 18.6099 9.54329 18.5961C9.49558 18.5822 9.44989 18.5657 9.40638 18.5472L10.3493 16.3402C10.3058 16.3215 10.26 16.305 10.2122 16.2912C10.1644 16.2773 10.1161 16.2665 10.0676 16.2587C10.019 16.2509 9.97195 16.2465 9.92674 16.2446C9.88163 16.2428 9.83962 16.2436 9.80129 16.246C9.72542 16.2509 9.66439 16.262 9.62603 16.2702C9.6068 16.2744 9.59134 16.2782 9.58198 16.2806C9.5772 16.2818 9.57335 16.2828 9.57103 16.2834C9.56892 16.284 9.56709 16.2844 9.56743 16.2844C9.56743 16.2843 9.56744 16.2843 9.56745 16.2843C9.56745 16.2843 9.56748 16.2843 9.56749 16.2843C9.56753 16.2843 9.5676 16.2843 9.56767 16.2843C9.56783 16.2842 9.56807 16.2842 9.56838 16.2841C9.56898 16.2839 9.56996 16.2837 9.57117 16.2834C9.57354 16.2827 9.57743 16.2817 9.58226 16.2805C9.59172 16.2781 9.60727 16.2743 9.62661 16.2701C9.66519 16.2619 9.72643 16.2508 9.80254 16.246C9.84099 16.2436 9.88309 16.2429 9.92829 16.2448C9.97358 16.2467 10.0207 16.2513 10.0693 16.2592C10.1179 16.2671 10.1662 16.278 10.214 16.292C10.2617 16.306 10.3074 16.3226 10.3509 16.3413L9.40257 18.546ZM9.40578 18.5469C9.46338 18.5715 9.51315 18.5875 9.54852 18.5977C9.56589 18.6027 9.58026 18.6064 9.58971 18.6088C9.59852 18.611 9.60578 18.6127 9.60598 18.6127C9.60695 18.6129 9.60555 18.6126 9.60435 18.6123C9.60281 18.612 9.5999 18.6113 9.59622 18.6104C9.58895 18.6086 9.57655 18.6054 9.56119 18.6012C9.52993 18.5925 9.48325 18.5781 9.42836 18.5555L10.3421 16.3362C10.2859 16.3131 10.238 16.2983 10.2055 16.2893C10.1896 16.2848 10.1765 16.2816 10.1687 16.2796C10.1647 16.2786 10.1615 16.2779 10.1596 16.2774C10.1581 16.2771 10.1564 16.2767 10.1571 16.2768C10.1571 16.2768 10.1589 16.2773 10.1611 16.2778C10.1634 16.2783 10.1671 16.2792 10.1715 16.2803C10.1804 16.2826 10.1941 16.2861 10.2109 16.2909C10.245 16.3007 10.2936 16.3163 10.3499 16.3404L9.40578 18.5469ZM10.168 16.2796L10.1612 16.278L9.59564 18.6104L9.60244 18.6121L10.168 16.2796ZM9.44058 18.5615C9.39938 18.5453 9.36799 18.5303 9.35272 18.5228C9.34463 18.5188 9.33844 18.5156 9.33587 18.5143C9.33518 18.514 9.3306 18.5116 9.33521 18.514C9.33783 18.5153 9.35773 18.5257 9.38291 18.5374C9.40895 18.5495 9.45187 18.5684 9.50648 18.587L10.2787 16.3146C10.3054 16.3237 10.3286 16.3326 10.3476 16.3405C10.3667 16.3483 10.3828 16.3555 10.3951 16.3613C10.4075 16.367 10.4175 16.372 10.4239 16.3752C10.4302 16.3783 10.4349 16.3808 10.4358 16.3812C10.436 16.3813 10.4368 16.3817 10.4357 16.3811C10.4351 16.3808 10.4335 16.38 10.4316 16.379C10.4278 16.3771 10.4205 16.3734 10.4112 16.3688C10.4018 16.3642 10.3889 16.358 10.3735 16.351C10.358 16.344 10.3387 16.3357 10.3163 16.3269L9.44058 18.5615ZM9.50623 18.5869C9.54743 18.6009 9.58749 18.6122 9.62616 18.6212C9.66311 18.6298 9.69287 18.635 9.70733 18.6374C9.71391 18.6385 9.71978 18.6394 9.71989 18.6395C9.7214 18.6397 9.71848 18.6392 9.71484 18.6386C9.7058 18.6371 9.69083 18.6345 9.67247 18.6307L10.1659 16.2819C10.1417 16.2768 10.1216 16.2733 10.1079 16.271C10.1019 16.27 10.0968 16.2692 10.0962 16.2691C10.0941 16.2688 10.0979 16.2694 10.1025 16.2702C10.1129 16.2719 10.1388 16.2764 10.1718 16.284C10.2064 16.2921 10.2423 16.3022 10.2789 16.3147L9.50623 18.5869ZM9.53418 18.5929C10.0064 18.7528 10.4258 18.6773 10.6926 18.585C10.827 18.5385 10.9361 18.4836 11.0152 18.4381C11.0555 18.4149 11.0899 18.3931 11.118 18.3742C11.1321 18.3647 11.1448 18.3558 11.156 18.3478C11.1616 18.3438 11.1669 18.3399 11.1718 18.3363C11.1742 18.3345 11.1766 18.3327 11.1789 18.331C11.18 18.3302 11.1811 18.3294 11.1822 18.3285C11.1827 18.3281 11.1833 18.3277 11.1838 18.3273C11.1841 18.3271 11.1845 18.3268 11.1846 18.3267C11.185 18.3264 11.1854 18.3261 10.4595 17.3706C9.73357 16.415 9.73397 16.4147 9.73436 16.4144C9.73449 16.4143 9.73488 16.4141 9.73514 16.4139C9.73566 16.4135 9.73618 16.4131 9.73669 16.4127C9.73772 16.4119 9.73875 16.4111 9.73976 16.4104C9.7418 16.4088 9.7438 16.4074 9.74578 16.4059C9.74973 16.403 9.75358 16.4002 9.75733 16.3975C9.76481 16.3921 9.77195 16.3872 9.7788 16.3826C9.79238 16.3734 9.80536 16.3653 9.81804 16.358C9.84208 16.3442 9.87152 16.3295 9.90784 16.3169C9.97839 16.2925 10.1276 16.2599 10.3042 16.3197L9.53418 18.5929ZM11.1823 18.3285L11.1925 18.3208L9.74687 16.405L9.73667 16.4127L11.1823 18.3285ZM11.2724 18.2549L12.8582 16.8279L11.2528 15.0439L9.66699 16.4709L11.2724 18.2549ZM11.3315 16.8929L13.905 18.8397L15.3529 16.9257L12.7794 14.9789L11.3315 16.8929ZM14.1433 18.98L14.1756 18.9943L15.1469 16.7996L15.1146 16.7854L14.1433 18.98ZM14.1865 18.9991C15.0467 19.3696 15.9211 19.1942 16.4882 18.7465L15.0011 16.8628C15.0348 16.8362 15.0624 16.822 15.0808 16.8143C15.1 16.8063 15.1156 16.8027 15.1273 16.8011C15.1553 16.7973 15.1604 16.8054 15.136 16.7949L14.1865 18.9991ZM16.4882 18.7465C16.735 18.5517 16.899 18.3361 17.0006 18.1754C17.0526 18.0932 17.0919 18.0196 17.1204 17.9612C17.1347 17.9318 17.1465 17.9057 17.1561 17.8836C17.1609 17.8726 17.1651 17.8625 17.1688 17.8535C17.1706 17.8489 17.1724 17.8447 17.1739 17.8407C17.1747 17.8387 17.1755 17.8367 17.1762 17.8349C17.1766 17.8339 17.177 17.833 17.1773 17.8321C17.1775 17.8317 17.1777 17.8312 17.1778 17.8308C17.1779 17.8306 17.178 17.8302 17.1781 17.8301C17.1782 17.8298 17.1783 17.8295 16.059 17.3969C14.9396 16.9644 14.9398 16.9641 14.9399 16.9638C14.9399 16.9637 14.9401 16.9633 14.9401 16.9631C14.9403 16.9627 14.9405 16.9623 14.9406 16.9619C14.941 16.961 14.9413 16.9602 14.9416 16.9594C14.9423 16.9577 14.9429 16.9561 14.9435 16.9546C14.9448 16.9514 14.9459 16.9485 14.9471 16.9457C14.9494 16.9401 14.9515 16.9351 14.9534 16.9307C14.9572 16.9219 14.9603 16.9151 14.9628 16.91C14.9676 16.9002 14.9706 16.8952 14.9722 16.8926C14.9731 16.8913 14.98 16.8795 15.0011 16.8628L16.4882 18.7465ZM17.1738 17.8409L17.1835 17.8167L14.9538 16.9288L14.9441 16.953L17.1738 17.8409ZM17.2458 17.6056L19.1369 8.04302L16.7825 7.57742L14.8914 17.14L17.2458 17.6056ZM19.1301 8.07495C19.2044 7.74635 19.2418 7.34874 19.1269 6.92812L16.8117 7.5604C16.8062 7.54016 16.8031 7.52248 16.8015 7.5085C16.7999 7.49472 16.8 7.48593 16.8 7.48331C16.8001 7.48084 16.8001 7.48437 16.7987 7.49492C16.7973 7.50554 16.7945 7.5221 16.7892 7.54549L19.1301 8.07495ZM19.1269 6.92812C19.0024 6.47226 18.7012 6.05956 18.2747 5.81277L17.0726 7.89C16.9929 7.84389 16.9371 7.78912 16.899 7.73865C16.8605 7.68764 16.8302 7.62821 16.8117 7.5604L19.1269 6.92812ZM18.2747 5.81277C17.906 5.59941 17.5263 5.53788 17.1967 5.55191L17.2988 7.94974C17.2782 7.95062 17.2445 7.94967 17.2019 7.94025C17.1581 7.93053 17.1135 7.91365 17.0726 7.89L18.2747 5.81277ZM17.3169 8.52162C17.2915 8.52276 17.2519 8.52295 17.1992 8.51688C17.1734 8.51392 17.1307 8.50792 17.0773 8.49491C17.0501 8.4883 17.0121 8.47792 16.9672 8.46193C16.9257 8.44715 16.856 8.41971 16.7752 8.37299L17.9774 6.29576C17.7362 6.15617 17.4997 6.13563 17.4732 6.13257C17.3814 6.12203 17.2919 6.12033 17.2092 6.12404L17.3169 8.52162ZM16.7753 8.37299C16.7932 8.38336 16.8169 8.39623 16.8046 8.38946C16.8015 8.3878 16.7687 8.37007 16.7289 8.34404C16.6256 8.27659 16.5155 8.18112 16.4211 8.05089C16.3411 7.94046 16.2994 7.84185 16.2814 7.7954C16.2627 7.74728 16.253 7.7116 16.251 7.70433L18.5662 7.07211C18.5578 7.04129 18.5425 6.98807 18.5186 6.92664C18.4954 6.86689 18.449 6.75922 18.3642 6.64218C18.1665 6.36955 17.8304 6.21068 17.9774 6.29575L16.7753 8.37299ZM16.251 7.70434C16.2341 7.64247 16.2266 7.59202 16.223 7.55782C16.2193 7.52199 16.2188 7.49355 16.2192 7.47357C16.22 7.43382 16.2248 7.41681 16.2229 7.42519L18.5638 7.95458C18.6253 7.68235 18.6479 7.37114 18.5662 7.0721L16.251 7.70434ZM16.2585 7.29989L16.2573 7.30318L18.527 8.08318L18.5282 8.07988L16.2585 7.29989ZM16.215 7.46036L14.3347 16.9674L16.6891 17.4331L18.5694 7.926L16.215 7.46036ZM14.4238 16.6942C14.4219 16.6984 14.4312 16.6781 14.4427 16.6564C14.4534 16.6364 14.4661 16.6145 14.4816 16.5916C14.5105 16.5485 14.5589 16.4868 14.6352 16.4265L16.1224 18.3102C16.2882 18.1793 16.4009 18.0383 16.4729 17.9312C16.5099 17.8763 16.5388 17.8262 16.5609 17.7848C16.572 17.7639 16.5813 17.7453 16.5889 17.7296C16.5958 17.7154 16.6034 17.699 16.6 17.7063L14.4238 16.6942ZM14.6352 16.4265C14.6468 16.4174 14.8057 16.2896 15.0564 16.2563C15.2742 16.2274 15.4042 16.2899 15.3689 16.2755L14.4644 18.4986C14.6985 18.5938 15.014 18.683 15.3726 18.6354C15.7643 18.5833 16.0196 18.3914 16.1224 18.3102L14.6352 16.4265ZM15.6407 16.4301L12.8265 14.3009L11.3784 16.2148L14.1926 18.344L15.6407 16.4301ZM12.83 14.3035L12.7507 14.2431L11.2957 16.1517L11.375 16.2122L12.83 14.3035ZM11.1877 14.3361L11.186 14.3377L12.857 16.0604L12.8587 16.0587L11.1877 14.3361ZM12.7277 14.2289L11.8861 13.6162L10.4736 15.5565L11.3152 16.1692L12.7277 14.2289ZM12.0825 15.3771L16.8121 9.97851L15.0069 8.39701L10.2773 13.7956L12.0825 15.3771ZM16.8111 9.97967C17.0013 9.76309 17.1262 9.49344 17.1655 9.2022L14.7871 8.88136C14.8118 8.69792 14.8903 8.52968 15.0079 8.39585L16.8111 9.97967ZM17.1655 9.2022C17.2048 8.91079 17.1559 8.61581 17.0271 8.35415L14.8738 9.41392C14.7933 9.25036 14.7623 9.06496 14.7871 8.88136L17.1655 9.2022ZM17.0271 8.35415C16.8985 8.09289 16.6975 7.87894 16.4534 7.73385L15.2271 9.79687C15.0785 9.70857 14.9541 9.57707 14.8738 9.41392L17.0271 8.35415ZM16.4534 7.73385C16.2097 7.58894 15.9311 7.51734 15.6511 7.52438L15.7114 9.92362C15.5433 9.92785 15.3753 9.88497 15.2271 9.79687L16.4534 7.73385ZM15.651 7.52438C15.3773 7.53128 15.1084 7.61315 14.8754 7.76405L16.1801 9.77846C16.0382 9.87038 15.8757 9.91948 15.7115 9.92362L15.651 7.52438ZM14.876 7.76366L8.03226 12.1902L9.33571 14.2054L16.1795 9.77886L14.876 7.76366ZM9.06228 12.059L6.4769 11.2002L5.7203 13.4778L8.30569 14.3367L9.06228 12.059ZM6.0986 12.339C6.6687 11.2831 6.66884 11.2832 6.66897 11.2832C6.66902 11.2833 6.66916 11.2833 6.66925 11.2834C6.66943 11.2835 6.6696 11.2836 6.66978 11.2837C6.67012 11.2839 6.67046 11.284 6.67078 11.2842C6.67142 11.2846 6.67201 11.2849 6.67256 11.2852C6.67365 11.2858 6.67455 11.2863 6.67527 11.2867C6.67671 11.2875 6.67749 11.2879 6.67771 11.288C6.67806 11.2882 6.6766 11.2874 6.67404 11.2859C6.6671 11.2817 6.66312 11.279 6.66403 11.2796C6.66495 11.2803 6.67118 11.2847 6.68135 11.293C6.69059 11.3006 6.7113 11.3181 6.73784 11.3455C6.76188 11.3703 6.81028 11.423 6.86048 11.5028C6.90695 11.5767 6.99191 11.7318 7.01999 11.9524L4.63918 12.2553C4.69497 12.6937 4.96368 12.9635 5.01576 13.0171C5.11397 13.1183 5.21327 13.1929 5.27337 13.2357C5.33999 13.283 5.40097 13.321 5.44255 13.3458C5.46425 13.3588 5.48295 13.3696 5.49738 13.3777C5.50464 13.3818 5.51095 13.3853 5.51615 13.3882C5.51876 13.3896 5.52111 13.3909 5.52317 13.392C5.5242 13.3926 5.52516 13.3931 5.52605 13.3936C5.52649 13.3939 5.52692 13.3941 5.52733 13.3943C5.52753 13.3944 5.52773 13.3945 5.52793 13.3946C5.52803 13.3947 5.52817 13.3948 5.52822 13.3948C5.52836 13.3949 5.5285 13.3949 6.0986 12.339ZM7.01997 11.9522C7.00445 11.8304 6.94404 11.6362 6.98261 11.771C7.00424 11.8466 7.03984 11.9973 7.02548 12.1897C7.01202 12.3699 6.96072 12.5073 6.92686 12.5839C6.89503 12.656 6.86307 12.7085 6.85246 12.7257C6.83936 12.747 6.82865 12.7629 6.82626 12.7664C6.82283 12.7715 6.81733 12.7794 6.82591 12.767L4.85251 11.4011C4.84491 11.4121 4.85689 11.3948 4.8483 11.4072C4.84695 11.4091 4.84262 11.4154 4.83771 11.4226C4.83374 11.4285 4.82181 11.4462 4.80779 11.469C4.79626 11.4878 4.76366 11.5414 4.73142 11.6144C4.69715 11.692 4.64565 11.8301 4.63214 12.011C4.61774 12.2039 4.65343 12.3552 4.67524 12.4314C4.71415 12.5673 4.65438 12.3746 4.6392 12.2554L7.01997 11.9522ZM6.82582 12.7671C6.78902 12.8203 6.75609 12.8578 6.73812 12.8775C6.71772 12.8998 6.69982 12.9172 6.68578 12.9301C6.65843 12.9553 6.63041 12.9776 6.60018 12.998L5.25608 11.0097C5.14339 11.0859 4.98047 11.2163 4.85261 11.401L6.82582 12.7671ZM6.60018 12.998C6.58108 13.0109 6.56719 13.0186 6.56073 13.0221C6.55376 13.0259 6.54903 13.0281 6.54653 13.0292C6.5438 13.0305 6.54062 13.0318 6.53613 13.0336C6.53376 13.0346 6.53075 13.0357 6.52697 13.0372C6.52507 13.0379 6.52294 13.0387 6.52057 13.0395C6.51939 13.04 6.51814 13.0404 6.51683 13.0409C6.51617 13.0411 6.5155 13.0414 6.5148 13.0416C6.51446 13.0418 6.51411 13.0419 6.51375 13.042C6.51358 13.0421 6.5134 13.0421 6.51322 13.0422C6.51313 13.0422 6.513 13.0423 6.51295 13.0423C6.51281 13.0424 6.51268 13.0424 6.10823 11.9126C5.70378 10.7828 5.70364 10.7829 5.7035 10.7829C5.70346 10.7829 5.70332 10.783 5.70323 10.783C5.70304 10.7831 5.70285 10.7832 5.70267 10.7832C5.70229 10.7834 5.7019 10.7835 5.70151 10.7836C5.70073 10.7839 5.69991 10.7842 5.69907 10.7845C5.69739 10.7851 5.69559 10.7858 5.69368 10.7865C5.68987 10.7879 5.6856 10.7895 5.68091 10.7912C5.67154 10.7948 5.66038 10.7991 5.64769 10.8041C5.62257 10.8141 5.59013 10.8276 5.55289 10.8446C5.48405 10.8759 5.37363 10.9302 5.25608 11.0097L6.60018 12.998ZM6.49694 13.0479L6.50657 13.0446L5.72914 10.774L5.71952 10.7773L6.49694 13.0479ZM6.56304 13.0237L6.57267 13.0198L5.6823 10.7911L5.67267 10.795L6.56304 13.0237ZM6.12748 11.9055C6.58859 13.0133 6.5886 13.0133 6.58862 13.0133C6.58864 13.0133 6.58867 13.0133 6.58871 13.0133C6.58879 13.0133 6.58891 13.0132 6.58907 13.0131C6.58939 13.013 6.58987 13.0128 6.59051 13.0125C6.59179 13.012 6.5937 13.0112 6.59624 13.0102C6.60132 13.008 6.6089 13.0049 6.6189 13.0007C6.6389 12.9924 6.66859 12.9801 6.70733 12.9639C6.78481 12.9317 6.89851 12.8844 7.04334 12.8241C7.33302 12.7036 7.74726 12.5312 8.24551 12.3239C9.24202 11.9093 10.5745 11.3551 11.9186 10.7964L10.9974 8.58025C9.65302 9.13906 8.32028 9.69339 7.32364 10.108C6.82532 10.3153 6.41102 10.4877 6.12129 10.6083C5.97642 10.6686 5.8627 10.7159 5.78519 10.7482C5.74644 10.7643 5.71674 10.7766 5.69673 10.785C5.68672 10.7891 5.67914 10.7923 5.67405 10.7944C5.67151 10.7955 5.66959 10.7963 5.66831 10.7968C5.66767 10.7971 5.66719 10.7973 5.66687 10.7974C5.66671 10.7975 5.66658 10.7975 5.6665 10.7975C5.66646 10.7976 5.66643 10.7976 5.66641 10.7976C5.66639 10.7976 5.66638 10.7976 6.12748 11.9055ZM11.9186 10.7964C13.2626 10.2377 14.6181 9.67477 15.6608 9.24228L14.7412 7.02544C13.6979 7.45821 12.3418 8.02142 10.9974 8.58025L11.9186 10.7964ZM15.6608 9.24228C16.1818 9.02615 16.6303 8.8404 16.9563 8.70566C17.1194 8.63826 17.2515 8.58379 17.3464 8.54472C17.394 8.52515 17.4317 8.50969 17.4591 8.4985C17.4907 8.48559 17.4997 8.48203 17.4969 8.48312L16.6248 6.24717C16.5452 6.27821 15.7718 6.59791 14.7412 7.02544L15.6608 9.24228ZM17.4954 8.48369C17.4261 8.51064 17.3663 8.51941 17.3169 8.52162L17.2092 6.12404C17.0451 6.13142 16.8409 6.16322 16.6263 6.2466L17.4954 8.48369ZM13.224 9.56301L9.63729 13.6572L11.4425 15.2386L15.0292 11.1445L13.224 9.56301ZM9.70424 13.5867L9.70254 13.5884L11.3739 15.3107L11.3756 15.3091L9.70424 13.5867ZM9.62664 13.6691C9.59734 13.7034 9.56956 13.739 9.54339 13.7759L11.5013 15.1639C11.4851 15.1868 11.4679 15.2088 11.4498 15.23L9.62664 13.6691ZM9.56111 13.7516C9.53118 13.7916 9.50325 13.8332 9.47744 13.8762L11.5356 15.1108C11.5195 15.1376 11.5022 15.1634 11.4836 15.1882L9.56111 13.7516ZM9.48082 13.8706C9.37407 14.0464 9.30454 14.2435 9.27821 14.4498L11.6589 14.7537C11.6423 14.8836 11.5986 15.007 11.5322 15.1164L9.48082 13.8706ZM9.26856 14.5969C9.26855 14.6009 9.26855 14.6048 9.26856 14.6088L11.6685 14.5991C11.6686 14.6016 11.6686 14.6041 11.6685 14.6066L9.26856 14.5969ZM9.29888 14.3359L8.83164 16.3744L11.171 16.9106L11.6382 14.872L9.29888 14.3359ZM11.133 16.2434C11.1285 16.2306 11.124 16.2184 11.1195 16.2068C11.1151 16.1951 11.111 16.1848 11.1074 16.176C11.1039 16.1674 11.1009 16.1603 11.0992 16.1561C11.0983 16.1541 11.0975 16.1522 11.0972 16.1515C11.0968 16.1505 11.0968 16.1505 11.0969 16.1508C11.0976 16.1525 11.1022 16.1632 11.1077 16.1778C11.1134 16.1929 11.1184 16.2073 11.1226 16.2205L8.83696 16.9524C8.84535 16.9787 8.85415 17.0038 8.86345 17.0284C8.87258 17.0524 8.88052 17.0715 8.8846 17.0812C8.89314 17.1015 8.88022 17.0716 8.86964 17.0417L11.133 16.2434ZM11.1798 16.5865V16.5859H8.77979V16.5865H11.1798ZM11.1224 16.2194C10.9766 15.7648 10.303 13.5844 10.2077 13.276L7.91468 13.9846C8.00656 14.2819 8.68617 16.4818 8.83714 16.9525L11.1224 16.2194ZM9.71292 14.6379L14.7784 11.3613L13.4749 9.34617L8.40943 12.6227L9.71292 14.6379ZM10.2385 16.0889L10.883 16.5582L12.2957 14.618L11.6512 14.1487L10.2385 16.0889ZM10.7869 14.6959L9.83995 15.5475L11.4449 17.332L12.3918 16.4803L10.7869 14.6959ZM11.8122 16.7076L12.1146 15.3866L9.77512 14.851L9.47269 16.1719L11.8122 16.7076Z" fill="#849C9C" mask="url(#path-2-inside-1_157_41)"/>
</g>
<defs>
<clipPath id="clip0_157_41">
<rect width="24" height="24" fill="white"/>
</clipPath>
</defs>
</svg>
