<svg width="565" height="1030" viewBox="0 0 565 1030" fill="none" xmlns="http://www.w3.org/2000/svg">
<path d="M34.7583 532.421C25.3017 533.225 15.781 532.013 6.83617 528.866C42.597 517.52 74.963 503.81 103.19 482.31C114.041 474.16 123.673 464.527 131.799 453.699C144.845 435.886 142.327 416.598 125.524 402.132C115.568 393.566 103.572 387.288 92.4906 380.008L60.3535 358.98C21.4457 391.505 -4.87433 432.085 12.7677 486.829L12.3481 487.075C6.89338 480.986 0.313374 475.54 -3.82535 468.657C-17.8245 445.379 -20.5901 419.491 -19.0833 393.018C-18.7591 387.212 -20.0751 384.452 -25.2819 381.407C-46.2616 369.191 -57.3427 350.943 -57.7051 325.51C-27.5134 351.605 3.51755 357.202 37.3712 333.263C36.8181 338.085 36.3031 342.566 35.75 347.426C49.1008 341.545 59.953 325.188 61.7839 308.188C4.56654 310.836 -37.9079 291.756 -51.6972 231.263C-22.2494 253.955 11.9094 251.629 45.9538 250.891C59.6288 250.589 73.3609 252.215 88.3138 253.028C88.638 250.173 89.2483 244.708 89.8586 239.224C101.188 244.216 108.264 256.848 105.365 271.238C102.523 285.307 97.5067 298.979 93.1963 312.84C90.9267 320.026 87.7797 326.947 85.7008 334.189C84.6518 337.839 85.1096 341.923 84.9379 344.779C136.662 322.692 187.052 322.295 239.425 344.873C238.776 340.467 238.776 334.946 237.098 329.991C232.311 315.998 226.418 302.364 221.84 288.39C218.026 276.571 216.118 264.185 221.44 252.348C223.728 247.204 228.21 243.025 233.799 239.338C234.409 244.727 235 250.116 235.362 253.255C250.468 252.537 264.772 251.705 279.077 251.175C296.833 250.532 314.647 250.816 332.327 249.379C346.936 248.187 353.497 237.314 347.07 224.077C342.808 215.357 336.63 207.693 328.989 201.65C302.402 181.228 271.543 169.504 238.757 163.358C162.468 149.195 86.5591 149.232 11.3563 170.165C-6.78159 175.214 -23.7179 182.949 -37.8506 198.663C-37.3738 179.583 -31.4804 163.982 -19.9607 151.785C-8.80326 139.985 4.98614 130.644 17.2688 119.809C20.4539 117.01 24.1158 113.077 24.5545 109.068C28.8267 69.3573 64.9881 41.1627 73.8759 33.0693C84.5183 23.3875 124.742 8.63784 161.781 0.544434C155.353 6.48212 146.809 22.8202 143.777 29.9114C142.838 32.4716 142.198 35.13 141.869 37.8346C142.308 43.0348 147.171 46.0225 154.266 47.5731C170.84 51.166 176.791 46.7411 200.803 44.5287C270.952 38.0237 334.883 51.7522 387.713 101.258C396.497 109.905 404.541 119.259 411.764 129.226C369.251 113.928 326.3 114.098 282.948 121.321C304.748 124.423 326.72 126.692 348.329 130.776C405.451 141.668 458.186 161.864 499.478 204.714C520.61 226.649 535.468 252.215 544.985 283.946C511.837 260.97 478.842 243.819 438.713 243.422C441.04 245.559 443.271 247.809 445.713 249.833C487.119 284.154 522.861 323.184 544.089 373.03C575.043 445.757 571.477 516.177 525.111 582.059C516.91 593.783 505.219 603.03 495.492 613.809C492.443 616.993 490.447 621.024 489.77 625.363C482.141 732.695 433.583 815.841 341.424 873.289C332.407 878.513 322.903 882.864 313.045 886.28C335.169 852.243 346.021 814.82 349.626 775.242C352.921 736.221 350.835 696.936 343.427 658.474C359.562 687.009 375.66 715.317 401.35 737.611C397.536 723.448 393.092 710.381 390.822 696.917C385.329 664.241 389.048 631.641 393.435 599.097C397.993 565.418 402.666 531.759 406.29 497.986C407.739 484.333 406.519 470.416 406.519 456.384C426.888 481.44 443.825 509.162 454.982 540.42C451.167 457.576 445.198 375.432 385.863 308.756C393.664 346.575 394.885 384.395 391.452 424.748C386.359 421.572 382.678 419.51 379.283 417.071C375.888 414.632 372.474 411.512 367.382 409.658C370.319 416.239 372.646 423.198 376.346 429.325C386.397 445.946 387.79 462.738 383.041 481.705C372.093 525.651 357.14 567.896 335.264 607.663C334.082 609.819 332.499 611.747 330.248 615L313.674 587.562C315.677 618.574 320.063 652.423 319.625 686.195C318.709 756.597 299.332 821.155 253.5 877.014C227.085 909.161 202.844 943.199 178.813 977.236C166.015 995.314 162.525 1009.57 161.152 1029.69C157.871 1025.91 155.43 1023.32 153.389 1020.56C127.203 986.237 121.08 948.172 132.276 907.1C143.853 864.515 168.513 829.059 195.635 795.116C203.263 785.661 211.102 776.49 218.865 767.186C177.554 797.12 133.802 821.703 82.4966 837.474C84.957 833.011 86.3111 830.496 87.7416 828.019C107.253 793.981 118.258 758.053 110.018 718.664C108.01 710.416 105.219 702.375 101.684 694.648C90.4873 668.064 86.9102 638.932 91.3463 610.462C91.5346 609.217 91.8281 607.989 92.2236 606.793C92.6051 605.621 93.1582 604.505 93.9783 602.52C96.5149 608.722 98.7273 614.225 101.016 619.671C111.83 645.331 130.616 664.147 153.77 678.953C155.307 679.665 156.989 680.018 158.685 679.985C160.381 679.952 162.047 679.535 163.555 678.764C190.905 661.84 211.121 639.261 219.437 607.568C220.113 605.802 220.936 604.094 221.897 602.463C225.254 609.422 228.21 615.567 231.186 621.713L233.856 621.354C236.335 609.1 239.482 596.922 241.084 584.555C243.278 567.536 242.991 550.518 236.85 534.198C229.412 514.059 215.546 500.955 194.147 496.379C170.465 491.13 145.823 491.983 122.568 498.856L34.7583 532.421ZM217.93 460.185L219.837 457.916C245.051 480.116 275.758 481.459 306.865 481.156C312.434 481.156 316.211 479.265 316.401 473.233C316.668 461.055 318.557 448.65 316.687 436.737C311.214 402.057 287.24 379.327 263.399 358.753C252.127 366.128 241.676 373.106 231.09 379.838C222.546 385.284 213.467 389.935 205.247 395.779C187.395 408.486 180.567 424.692 185.316 441.162C191.305 461.831 210.511 478.017 230.785 479.417L217.93 460.185ZM262.388 308.756C262.846 324.224 274.652 342.226 287.926 347.18C287.659 342.812 287.411 338.614 287.049 332.96C304.405 348.182 323.554 350.887 344.056 346.443C362.633 342.415 371.12 327.533 364.102 310.136C361.355 303.366 356.148 297.466 351.571 291.548C347.928 286.877 344.095 287.595 338.468 290.281C325.584 296.82 312.062 302.04 298.111 305.862C286.591 308.756 274.232 308.037 262.293 308.793L262.388 308.756Z" fill="#D8E6E5"/>
</svg>
