<svg width="749" height="637" viewBox="0 0 749 637" fill="none" xmlns="http://www.w3.org/2000/svg">
<path d="M21.4123 76.9263C16.6397 88.1883 14 100.573 14 113.575C14 126.577 16.6397 138.962 21.4123 150.224M194.588 150.224C199.36 138.962 202 126.577 202 113.575C202 100.573 199.36 88.1883 194.588 76.9263" stroke="#262626"/>
<path d="M28.1115 52.8755L38.4875 60.3654L37.4998 61.7337L28.2498 55.0566L24.5563 60.1733L33.8063 66.8504L32.8135 68.2258L22.4375 60.7359L28.1115 52.8755Z" fill="#262626"/>
<path d="M42.7643 47.9393L40.2861 50.2946L39.3355 49.2944L41.8137 46.9391C42.2937 46.4829 42.6096 46.0372 42.7616 45.6017C42.9136 45.1662 42.9284 44.748 42.806 44.347C42.6878 43.942 42.4632 43.5654 42.1322 43.2171C41.8295 42.8985 41.4748 42.6657 41.0683 42.5186C40.666 42.3675 40.2354 42.3482 39.7766 42.4609C39.3138 42.5693 38.8425 42.8516 38.3625 43.3077L36.171 45.3905L44.03 53.6599L42.8005 54.8284L33.9847 45.5525L37.4059 42.3011C38.1067 41.6351 38.8142 41.193 39.5285 40.975C40.2427 40.7569 40.929 40.7433 41.5873 40.9341C42.2415 41.1207 42.829 41.4879 43.3497 42.0358C43.9148 42.6304 44.2719 43.257 44.4209 43.9156C44.5699 44.5743 44.5073 45.2441 44.233 45.9251C43.9547 46.6019 43.4651 47.2733 42.7643 47.9393Z" fill="#262626"/>
<path d="M60.5343 38.3849L61.3004 39.5325L55.6646 43.2951L54.8985 42.1475L60.5343 38.3849ZM48.8443 32.4618L55.9497 43.1048L54.5389 44.0466L47.4335 33.4037L48.8443 32.4618ZM56.5044 33.9632L57.2705 35.1109L52.3803 38.3756L51.6142 37.228L56.5044 33.9632ZM54.1219 28.9384L54.893 30.0933L49.3303 33.8071L48.5592 32.6521L54.1219 28.9384Z" fill="#262626"/>
<path d="M69.7866 20.7864L74.947 32.4967L73.4028 33.1772L68.8024 22.7376L63.0277 25.2824L67.6281 35.7219L66.0759 36.4059L60.9155 24.6957L69.7866 20.7864Z" fill="#262626"/>
<path d="M89.7132 21.0144L89.8888 21.8037C90.0976 22.7417 90.1675 23.6085 90.0985 24.4042C90.0295 25.1999 89.8327 25.9071 89.5082 26.5255C89.1836 27.144 88.743 27.6593 88.1865 28.0713C87.6356 28.482 86.9798 28.7721 86.2191 28.9414C85.4813 29.1056 84.773 29.1192 84.0942 28.9821C83.4211 28.8438 82.8007 28.5647 82.2331 28.1448C81.6711 27.7237 81.1844 27.1687 80.773 26.4799C80.3616 25.7911 80.0515 24.9777 79.8427 24.0397L79.667 23.2505C79.4582 22.3125 79.3918 21.4478 79.4678 20.6566C79.5483 19.8583 79.7536 19.1493 80.0839 18.5295C80.4129 17.9041 80.8528 17.3859 81.4037 16.9752C81.9603 16.5632 82.6075 16.2751 83.3453 16.1108C84.106 15.9415 84.8229 15.926 85.496 16.0644C86.1748 16.2014 86.7929 16.484 87.3504 16.9122C87.9124 17.3333 88.3934 17.8896 88.7933 18.5809C89.1978 19.2653 89.5044 20.0764 89.7132 21.0144ZM88.2502 22.1684L88.0707 21.362C87.9052 20.6184 87.6816 19.9779 87.3999 19.4403C87.1239 18.9015 86.7968 18.4701 86.4185 18.1461C86.0403 17.8221 85.6172 17.6071 85.1494 17.5011C84.6874 17.3939 84.1904 17.3994 83.6585 17.5178C83.1437 17.6324 82.6999 17.8362 82.3269 18.1293C81.9597 18.4212 81.6706 18.7947 81.4598 19.2498C81.2547 19.7036 81.1357 20.2343 81.1028 20.8419C81.07 21.4495 81.1363 22.1251 81.3018 22.8686L81.4813 23.675C81.6481 24.4243 81.8758 25.0699 82.1645 25.6119C82.452 26.1482 82.7883 26.5806 83.1736 26.909C83.5633 27.2305 83.9863 27.4455 84.4426 27.554C84.9047 27.6612 85.3931 27.6576 85.9079 27.543C86.4455 27.4233 86.9008 27.2169 87.2737 26.9238C87.6467 26.6307 87.9329 26.2579 88.1323 25.8053C88.3361 25.3457 88.4488 24.8134 88.4702 24.2084C88.4903 23.5976 88.417 22.9176 88.2502 22.1684Z" fill="#262626"/>
<path d="M107.95 24.6722L107.982 26.0517L98.2989 26.276L98.2669 24.8965L107.95 24.6722ZM98.5393 24.8902L98.6441 29.4153L96.9658 29.4542L96.8522 24.9292L98.5393 24.8902ZM109.426 24.638L109.513 29.1548L107.835 29.1936L107.73 24.6773L109.426 24.638ZM106.025 13.2967L106.057 14.685L100.451 14.8149L100.419 13.4266L106.025 13.2967ZM107.483 13.2629L107.78 26.0564L106.093 26.0954L105.796 13.302L107.483 13.2629ZM99.8389 13.44L101.535 13.4007L101.39 18.5558C101.373 19.3299 101.317 20.0462 101.22 20.7049C101.124 21.3577 101 21.9554 100.849 22.4981C100.697 23.0409 100.521 23.5285 100.32 23.961C100.119 24.3876 99.9019 24.759 99.6689 25.075C99.4358 25.3852 99.1897 25.6429 98.9307 25.8481C98.6775 26.0474 98.42 26.1911 98.1583 26.2792L97.385 26.2971L97.3531 24.9176L97.8979 24.905C98.0464 24.7375 98.2137 24.4962 98.3998 24.1813C98.5918 23.8662 98.7787 23.4604 98.9606 22.9639C99.1482 22.4613 99.307 21.8511 99.4369 21.133C99.5727 20.4148 99.6556 19.5689 99.6858 18.5953L99.8389 13.44Z" fill="#262626"/>
<path d="M122.546 15.4445L116.404 26.2268L114.697 25.935L121.662 14.1433L122.763 14.3314L122.546 15.4445ZM124.08 27.5392L121.861 15.3275L122.026 14.2055L123.126 14.3936L125.795 27.8325L124.08 27.5392ZM124.662 22.8326L124.428 24.2015L117.341 22.9898L117.575 21.621L124.662 22.8326Z" fill="#262626"/>
<path d="M138.002 24.9854L134.953 23.8804L135.401 22.5936L138.169 23.5968C138.626 23.7626 139.054 23.8302 139.451 23.7997C139.849 23.7693 140.193 23.6447 140.484 23.4262C140.783 23.2041 141.005 22.892 141.151 22.4898C141.31 22.0491 141.355 21.6601 141.284 21.3228C141.22 20.9819 141.038 20.6853 140.737 20.4328C140.443 20.1768 140.032 19.953 139.503 19.7613L137.156 18.9108L133.269 29.6363L131.674 29.0583L136.035 17.0272L139.976 18.4557C140.593 18.6794 141.121 18.9424 141.56 19.2448C142.001 19.5416 142.341 19.8832 142.582 20.2694C142.829 20.6521 142.968 21.0764 142.999 21.5425C143.029 22.0085 142.943 22.5225 142.739 23.0843C142.56 23.5801 142.27 23.9832 141.871 24.2935C141.474 24.5983 141.004 24.7955 140.46 24.8852C139.922 24.9769 139.34 24.9497 138.713 24.8037L138.002 24.9854ZM135.889 30.5857L132.286 29.2799L133.657 28.3091L136.359 29.2884C136.866 29.472 137.327 29.5396 137.744 29.4911C138.166 29.4446 138.528 29.2955 138.831 29.0439C139.136 28.7868 139.369 28.4379 139.528 27.9972C139.69 27.551 139.75 27.1364 139.708 26.7535C139.666 26.3706 139.506 26.0291 139.229 25.729C138.951 25.429 138.542 25.1811 138.002 24.9854L135.73 24.1619L136.211 22.8871L139.318 24.0131L139.489 24.5986C140.049 24.8578 140.48 25.2008 140.78 25.6275C141.082 26.0487 141.26 26.512 141.314 27.0176C141.373 27.5251 141.309 28.0378 141.121 28.5556C140.849 29.3048 140.455 29.8784 139.936 30.2765C139.426 30.671 138.824 30.8954 138.131 30.9497C137.44 30.9985 136.693 30.8772 135.889 30.5857Z" fill="#262626"/>
<path d="M155.363 26.4002L145.872 34.3927L144.371 33.5285L154.985 24.8738L155.952 25.4309L155.363 26.4002ZM152.62 38.2791L154.762 26.0537L155.305 25.058L156.272 25.6151L154.128 39.1476L152.62 38.2791ZM154.793 34.0643L154.1 35.2676L147.87 31.6795L148.563 30.4761L154.793 34.0643Z" fill="#262626"/>
<path d="M170.273 42.0968L169.375 43.1441L164.119 38.6345L165.017 37.5872L170.273 42.0968ZM168.8 33.5831L160.467 43.2955L159.18 42.191L167.512 32.4786L168.8 33.5831ZM174.977 38.8824L166.644 48.5948L165.363 47.4961L173.696 37.7836L174.977 38.8824Z" fill="#262626"/>
<path d="M175.076 52.6261L186.716 51.4108L187.773 52.7376L177.764 60.711L176.707 59.3842L184.427 53.2344L172.78 54.4552L171.729 53.1353L181.738 45.1619L182.79 46.4818L175.076 52.6261Z" fill="#262626"/>
<path d="M187.126 73.0039L185.913 73.6615L182.684 67.704L183.897 67.0465L187.126 73.0039ZM194.098 61.9072L182.847 68.0054L182.039 66.5141L193.289 60.4159L194.098 61.9072ZM191.899 69.3971L190.686 70.0546L187.884 64.8853L189.097 64.2277L191.899 69.3971ZM197.122 67.4861L195.901 68.1478L192.714 62.2676L193.934 61.6059L197.122 67.4861Z" fill="#262626"/>
<mask id="mask0_128_554" style="mask-type:alpha" maskUnits="userSpaceOnUse" x="0" y="0" width="94" height="85">
<rect width="94" height="85" fill="#D9D9D9"/>
</mask>
<g mask="url(#mask0_128_554)">
<path d="M21.4123 76.9263C16.6397 88.1883 14 100.573 14 113.575C14 126.577 16.6397 138.962 21.4123 150.224M194.588 150.224C199.36 138.962 202 126.577 202 113.575C202 100.573 199.36 88.1883 194.588 76.9263" stroke="#D8E6E5"/>
<path d="M28.1115 52.8755L38.4875 60.3654L37.4998 61.7337L28.2498 55.0566L24.5563 60.1733L33.8063 66.8504L32.8135 68.2258L22.4375 60.7359L28.1115 52.8755Z" fill="#D8E6E5"/>
<path d="M42.7624 47.9393L40.2841 50.2946L39.3335 49.2944L41.8118 46.9391C42.2917 46.4829 42.6077 46.0372 42.7597 45.6017C42.9117 45.1662 42.9265 44.748 42.804 44.347C42.6859 43.942 42.4613 43.5654 42.1303 43.2171C41.8275 42.8985 41.4729 42.6657 41.0663 42.5186C40.664 42.3675 40.2335 42.3482 39.7747 42.4609C39.3119 42.5693 38.8405 42.8516 38.3606 43.3077L36.169 45.3905L44.0281 53.6599L42.7985 54.8284L33.9828 45.5525L37.4039 42.3011C38.1047 41.6351 38.8123 41.193 39.5265 40.975C40.2408 40.7569 40.9271 40.7433 41.5853 40.9341C42.2396 41.1207 42.827 41.4879 43.3477 42.0358C43.9129 42.6304 44.2699 43.257 44.4189 43.9156C44.568 44.5743 44.5053 45.2441 44.2311 45.9251C43.9527 46.6019 43.4632 47.2733 42.7624 47.9393Z" fill="#D8E6E5"/>
<path d="M60.5343 38.3849L61.3004 39.5325L55.6646 43.2951L54.8985 42.1475L60.5343 38.3849ZM48.8443 32.4618L55.9497 43.1048L54.5389 44.0466L47.4335 33.4037L48.8443 32.4618ZM56.5044 33.9632L57.2705 35.1109L52.3803 38.3756L51.6142 37.228L56.5044 33.9632ZM54.1219 28.9384L54.893 30.0933L49.3303 33.8071L48.5592 32.6521L54.1219 28.9384Z" fill="#D8E6E5"/>
<path d="M69.7847 20.7864L74.9451 32.4967L73.4009 33.1772L68.8005 22.7376L63.0258 25.2824L67.6262 35.7219L66.0739 36.4059L60.9135 24.6957L69.7847 20.7864Z" fill="#D8E6E5"/>
<path d="M89.7132 21.0144L89.8888 21.8037C90.0976 22.7417 90.1675 23.6085 90.0985 24.4042C90.0295 25.1999 89.8327 25.9071 89.5082 26.5255C89.1836 27.144 88.743 27.6593 88.1865 28.0713C87.6356 28.482 86.9798 28.7721 86.2191 28.9414C85.4813 29.1056 84.773 29.1192 84.0942 28.9821C83.4211 28.8438 82.8007 28.5647 82.2331 28.1448C81.6711 27.7237 81.1844 27.1687 80.773 26.4799C80.3616 25.7911 80.0515 24.9777 79.8427 24.0397L79.667 23.2505C79.4582 22.3125 79.3918 21.4478 79.4678 20.6566C79.5483 19.8583 79.7536 19.1493 80.0839 18.5295C80.4129 17.9041 80.8528 17.3859 81.4037 16.9752C81.9603 16.5632 82.6075 16.2751 83.3453 16.1108C84.106 15.9415 84.8229 15.926 85.496 16.0644C86.1748 16.2014 86.7929 16.484 87.3504 16.9122C87.9124 17.3333 88.3934 17.8896 88.7933 18.5809C89.1978 19.2653 89.5044 20.0764 89.7132 21.0144ZM88.2502 22.1684L88.0707 21.362C87.9052 20.6184 87.6816 19.9779 87.3999 19.4403C87.1239 18.9015 86.7968 18.4701 86.4185 18.1461C86.0403 17.8221 85.6172 17.6071 85.1494 17.5011C84.6874 17.3939 84.1904 17.3994 83.6585 17.5178C83.1437 17.6324 82.6999 17.8362 82.3269 18.1293C81.9597 18.4212 81.6706 18.7947 81.4598 19.2498C81.2547 19.7036 81.1357 20.2343 81.1028 20.8419C81.07 21.4495 81.1363 22.1251 81.3018 22.8686L81.4813 23.675C81.6481 24.4243 81.8758 25.0699 82.1645 25.6119C82.452 26.1482 82.7883 26.5806 83.1736 26.909C83.5633 27.2305 83.9863 27.4455 84.4426 27.554C84.9047 27.6612 85.3931 27.6576 85.9079 27.543C86.4455 27.4233 86.9008 27.2169 87.2737 26.9238C87.6467 26.6307 87.9329 26.2579 88.1323 25.8053C88.3361 25.3457 88.4488 24.8134 88.4702 24.2084C88.4903 23.5976 88.417 22.9176 88.2502 22.1684Z" fill="#D8E6E5"/>
</g>
<path d="M189.166 174.626L178.79 167.136L179.778 165.768L189.028 172.445L192.721 167.328L183.471 160.651L184.464 159.276L194.84 166.766L189.166 174.626Z" fill="#262626"/>
<path d="M174.515 179.562L176.993 177.207L177.944 178.207L175.466 180.562C174.986 181.019 174.67 181.464 174.518 181.9C174.366 182.335 174.351 182.753 174.473 183.154C174.591 183.559 174.816 183.936 175.147 184.284C175.45 184.603 175.804 184.836 176.211 184.983C176.613 185.134 177.044 185.153 177.503 185.041C177.965 184.932 178.437 184.65 178.917 184.194L181.108 182.111L173.249 173.842L174.479 172.673L183.295 181.949L179.873 185.2C179.173 185.866 178.465 186.308 177.751 186.527C177.037 186.745 176.35 186.758 175.692 186.567C175.038 186.381 174.45 186.014 173.93 185.466C173.364 184.871 173.007 184.244 172.858 183.586C172.709 182.927 172.772 182.257 173.046 181.576C173.325 180.9 173.814 180.228 174.515 179.562Z" fill="#262626"/>
<path d="M156.743 189.117L155.977 187.969L161.613 184.206L162.379 185.354L156.743 189.117ZM168.433 195.04L161.328 184.397L162.738 183.455L169.844 194.098L168.433 195.04ZM160.773 193.538L160.007 192.391L164.897 189.126L165.663 190.273L160.773 193.538ZM163.155 198.563L162.384 197.408L167.947 193.694L168.718 194.849L163.155 198.563Z" fill="#262626"/>
<path d="M147.493 206.715L142.332 195.005L143.876 194.324L148.477 204.764L154.252 202.219L149.651 191.78L151.203 191.096L156.364 202.806L147.493 206.715Z" fill="#262626"/>
<path d="M127.564 206.487L127.389 205.698C127.18 204.76 127.11 203.893 127.179 203.097C127.248 202.302 127.445 201.594 127.769 200.976C128.094 200.357 128.534 199.842 129.091 199.43C129.642 199.019 130.298 198.729 131.058 198.56C131.796 198.396 132.504 198.382 133.183 198.519C133.856 198.658 134.477 198.937 135.044 199.357C135.606 199.778 136.093 200.333 136.504 201.022C136.916 201.71 137.226 202.524 137.435 203.462L137.61 204.251C137.819 205.189 137.885 206.054 137.81 206.845C137.729 207.643 137.524 208.352 137.193 208.972C136.864 209.597 136.425 210.116 135.874 210.526C135.317 210.938 134.67 211.226 133.932 211.391C133.171 211.56 132.454 211.575 131.781 211.437C131.103 211.3 130.484 211.017 129.927 210.589C129.365 210.168 128.884 209.612 128.484 208.921C128.08 208.236 127.773 207.425 127.564 206.487ZM129.027 205.333L129.207 206.14C129.372 206.883 129.596 207.524 129.877 208.061C130.153 208.6 130.481 209.031 130.859 209.355C131.237 209.679 131.66 209.894 132.128 210C132.59 210.108 133.087 210.102 133.619 209.984C134.134 209.869 134.577 209.665 134.95 209.372C135.318 209.08 135.607 208.707 135.818 208.252C136.023 207.798 136.142 207.267 136.175 206.66C136.207 206.052 136.141 205.376 135.976 204.633L135.796 203.826C135.629 203.077 135.402 202.432 135.113 201.89C134.825 201.353 134.489 200.921 134.104 200.592C133.714 200.271 133.291 200.056 132.835 199.947C132.373 199.84 131.884 199.844 131.369 199.958C130.832 200.078 130.377 200.285 130.004 200.578C129.631 200.871 129.344 201.244 129.145 201.696C128.941 202.156 128.829 202.688 128.807 203.293C128.787 203.904 128.86 204.584 129.027 205.333Z" fill="#262626"/>
<path d="M109.327 202.829L109.296 201.45L118.978 201.225L119.01 202.605L109.327 202.829ZM118.738 202.611L118.633 198.086L120.311 198.047L120.425 202.572L118.738 202.611ZM107.851 202.863L107.764 198.347L109.443 198.308L109.547 202.824L107.851 202.863ZM111.253 214.205L111.22 212.816L116.826 212.687L116.858 214.075L111.253 214.205ZM109.794 214.239L109.498 201.445L111.185 201.406L111.481 214.199L109.794 214.239ZM117.438 214.061L115.743 214.101L115.887 208.946C115.904 208.172 115.961 207.455 116.057 206.797C116.153 206.144 116.277 205.546 116.429 205.003C116.58 204.461 116.756 203.973 116.957 203.54C117.158 203.114 117.375 202.743 117.608 202.426C117.842 202.116 118.088 201.859 118.347 201.653C118.6 201.454 118.857 201.31 119.119 201.222L119.892 201.204L119.924 202.584L119.379 202.596C119.231 202.764 119.064 203.005 118.878 203.32C118.686 203.635 118.499 204.041 118.317 204.538C118.129 205.04 117.97 205.65 117.84 206.368C117.705 207.087 117.622 207.933 117.592 208.906L117.438 214.061Z" fill="#262626"/>
<path d="M94.7318 212.057L100.873 201.274L102.58 201.566L95.615 213.358L94.5147 213.17L94.7318 212.057ZM93.1975 199.962L95.4162 212.174L95.2511 213.296L94.1509 213.108L91.4821 199.669L93.1975 199.962ZM92.6156 204.669L92.8497 203.3L99.9363 204.511L99.7023 205.88L92.6156 204.669Z" fill="#262626"/>
<path d="M79.2749 202.516L82.324 203.621L81.8764 204.908L79.1082 203.904C78.651 203.739 78.2237 203.671 77.8262 203.702C77.4288 203.732 77.0845 203.856 76.7934 204.075C76.4948 204.297 76.2726 204.609 76.1268 205.011C75.9671 205.452 75.9227 205.841 75.9937 206.178C76.0571 206.519 76.2394 206.816 76.5405 207.068C76.8342 207.324 77.2454 207.548 77.7742 207.74L80.121 208.59L84.0082 197.865L85.6029 198.443L81.2426 210.474L77.3011 209.045C76.6841 208.822 76.1562 208.559 75.7173 208.256C75.2765 207.96 74.9359 207.618 74.6957 207.232C74.448 206.849 74.3089 206.425 74.2784 205.959C74.2478 205.493 74.3344 204.979 74.538 204.417C74.7177 203.921 75.0072 203.518 75.4063 203.208C75.8034 202.903 76.2738 202.706 76.8174 202.616C77.3554 202.524 77.9376 202.552 78.564 202.698L79.2749 202.516ZM81.3888 196.916L84.9915 198.221L83.6206 199.192L80.9186 198.213C80.4118 198.029 79.9501 197.962 79.5337 198.01C79.1117 198.057 78.7492 198.206 78.4461 198.457C78.141 198.714 77.9086 199.063 77.7489 199.504C77.5872 199.95 77.5273 200.365 77.5693 200.748C77.6112 201.131 77.771 201.472 78.0487 201.772C78.3263 202.072 78.7351 202.32 79.2749 202.516L81.5473 203.339L81.0666 204.614L77.9597 203.488L77.7886 202.903C77.2281 202.643 76.7977 202.3 76.4974 201.874C76.1951 201.453 76.0172 200.989 75.9636 200.484C75.9044 199.976 75.9687 199.463 76.1564 198.946C76.4279 198.196 76.8228 197.623 77.341 197.225C77.8517 196.83 78.4534 196.606 79.1462 196.552C79.8369 196.503 80.5845 196.624 81.3888 196.916Z" fill="#262626"/>
<path d="M61.9159 201.101L71.4077 193.109L72.9081 193.973L62.2945 202.627L61.3272 202.07L61.9159 201.101ZM64.6598 189.222L62.5176 201.448L61.9746 202.443L61.0073 201.886L63.1517 188.354L64.6598 189.222ZM62.4859 193.437L63.1789 192.234L69.409 195.822L68.7159 197.025L62.4859 193.437Z" fill="#262626"/>
<path d="M47.0059 185.405L47.9043 184.357L53.1608 188.867L52.2623 189.914L47.0059 185.405ZM48.4797 193.918L56.8121 184.206L58.0995 185.31L49.7672 195.023L48.4797 193.918ZM42.3027 188.619L50.6351 178.907L51.9159 180.005L43.5835 189.718L42.3027 188.619Z" fill="#262626"/>
<path d="M42.2029 174.875L30.5633 176.091L29.5064 174.764L39.5156 166.791L40.5725 168.117L32.8525 174.267L44.499 173.046L45.5504 174.366L35.5412 182.34L34.4897 181.02L42.2029 174.875Z" fill="#262626"/>
<path d="M30.151 154.498L31.3641 153.84L34.5933 159.797L33.3802 160.455L30.151 154.498ZM23.1795 165.594L34.43 159.496L35.2383 160.987L23.9879 167.086L23.1795 165.594ZM25.378 158.104L26.5911 157.447L29.3931 162.616L28.18 163.274L25.378 158.104ZM20.1556 160.015L21.3764 159.354L24.5637 165.234L23.3429 165.896L20.1556 160.015Z" fill="#262626"/>
<mask id="mask1_128_554" style="mask-type:alpha" maskUnits="userSpaceOnUse" x="124" y="142" width="625" height="495">
<rect x="124" y="142" width="625" height="495" rx="15" fill="#D9D9D9"/>
</mask>
<g mask="url(#mask1_128_554)">
<path d="M21.4123 76.9263C16.6397 88.1883 14 100.573 14 113.575C14 126.577 16.6397 138.962 21.4123 150.224M194.588 150.224C199.36 138.962 202 126.577 202 113.575C202 100.573 199.36 88.1883 194.588 76.9263" stroke="#D8E6E5"/>
<path d="M189.166 174.626L178.79 167.136L179.778 165.768L189.028 172.445L192.721 167.328L183.471 160.651L184.464 159.276L194.84 166.766L189.166 174.626Z" fill="#D8E6E5"/>
<path d="M174.515 179.562L176.993 177.207L177.944 178.207L175.466 180.562C174.986 181.019 174.67 181.464 174.518 181.9C174.366 182.335 174.351 182.753 174.473 183.154C174.591 183.559 174.816 183.936 175.147 184.284C175.45 184.603 175.804 184.836 176.211 184.983C176.613 185.134 177.044 185.153 177.503 185.041C177.965 184.932 178.437 184.65 178.917 184.194L181.108 182.111L173.249 173.842L174.479 172.673L183.295 181.949L179.873 185.2C179.173 185.866 178.465 186.308 177.751 186.527C177.037 186.745 176.35 186.758 175.692 186.567C175.038 186.381 174.45 186.014 173.93 185.466C173.364 184.871 173.007 184.244 172.858 183.586C172.709 182.927 172.772 182.257 173.046 181.576C173.325 180.9 173.814 180.228 174.515 179.562Z" fill="#D8E6E5"/>
<path d="M156.743 189.117L155.977 187.969L161.613 184.206L162.379 185.354L156.743 189.117ZM168.433 195.04L161.328 184.397L162.738 183.455L169.844 194.098L168.433 195.04ZM160.773 193.538L160.007 192.391L164.897 189.126L165.663 190.273L160.773 193.538ZM163.155 198.563L162.384 197.408L167.947 193.694L168.718 194.849L163.155 198.563Z" fill="#D8E6E5"/>
<path d="M147.493 206.715L142.332 195.005L143.876 194.324L148.477 204.764L154.252 202.219L149.651 191.78L151.203 191.096L156.364 202.806L147.493 206.715Z" fill="#D8E6E5"/>
<path d="M127.564 206.487L127.389 205.698C127.18 204.76 127.11 203.893 127.179 203.097C127.248 202.302 127.445 201.594 127.769 200.976C128.094 200.357 128.534 199.842 129.091 199.43C129.642 199.019 130.298 198.729 131.058 198.56C131.796 198.396 132.504 198.382 133.183 198.519C133.856 198.658 134.477 198.937 135.044 199.357C135.606 199.778 136.093 200.333 136.504 201.022C136.916 201.71 137.226 202.524 137.435 203.462L137.61 204.251C137.819 205.189 137.885 206.054 137.81 206.845C137.729 207.643 137.524 208.352 137.193 208.972C136.864 209.597 136.425 210.116 135.874 210.526C135.317 210.938 134.67 211.226 133.932 211.391C133.171 211.56 132.454 211.575 131.781 211.437C131.103 211.3 130.484 211.017 129.927 210.589C129.365 210.168 128.884 209.612 128.484 208.921C128.08 208.236 127.773 207.425 127.564 206.487ZM129.027 205.333L129.207 206.14C129.372 206.883 129.596 207.524 129.877 208.061C130.153 208.6 130.481 209.031 130.859 209.355C131.237 209.679 131.66 209.894 132.128 210C132.59 210.108 133.087 210.102 133.619 209.984C134.134 209.869 134.577 209.665 134.95 209.372C135.318 209.08 135.607 208.707 135.818 208.252C136.023 207.798 136.142 207.267 136.175 206.66C136.207 206.052 136.141 205.376 135.976 204.633L135.796 203.826C135.629 203.077 135.402 202.432 135.113 201.89C134.825 201.353 134.489 200.921 134.104 200.592C133.714 200.271 133.291 200.056 132.835 199.947C132.373 199.84 131.884 199.844 131.369 199.958C130.832 200.078 130.377 200.285 130.004 200.578C129.631 200.871 129.344 201.244 129.145 201.696C128.941 202.156 128.829 202.688 128.807 203.293C128.787 203.904 128.86 204.584 129.027 205.333Z" fill="#D8E6E5"/>
</g>
<circle cx="109" cy="114" r="8" fill="#D8E6E5"/>
</svg>
