<svg width="205" height="318" viewBox="0 0 205 318" fill="none" xmlns="http://www.w3.org/2000/svg">
<g opacity="0.13">
<path d="M79.6763 163.549C76.7756 163.798 73.8553 163.423 71.1116 162.449C82.0808 158.939 92.0086 154.698 100.667 148.046C103.995 145.525 106.95 142.545 109.442 139.195C113.444 133.684 112.672 127.717 107.518 123.241C104.464 120.591 100.784 118.649 97.3849 116.396L87.5273 109.891C75.5929 119.953 67.5196 132.508 72.931 149.444L72.8023 149.52C71.1291 147.636 69.1108 145.952 67.8413 143.822C63.5473 136.621 62.699 128.612 63.1611 120.421C63.2606 118.625 62.8569 117.771 61.2598 116.829C54.8246 113.05 51.4256 107.405 51.3145 99.536C60.5753 107.609 70.0937 109.341 80.4778 101.935C80.3081 103.426 80.1502 104.813 79.9805 106.316C84.0757 104.497 87.4045 99.4366 87.9661 94.1772C70.4154 94.9962 57.387 89.0934 53.1573 70.3785C62.19 77.3988 72.6677 76.6792 83.1104 76.451C87.305 76.3574 91.5172 76.8606 96.1037 77.1121C96.2032 76.2287 96.3904 74.538 96.5776 72.8415C100.053 74.3859 102.223 78.2939 101.334 82.7459C100.462 87.0984 98.9235 91.3281 97.6014 95.6164C96.9052 97.8394 95.9399 99.9806 95.3022 102.221C94.9805 103.35 95.1209 104.614 95.0682 105.497C110.934 98.6643 126.39 98.5415 142.455 105.527C142.256 104.164 142.256 102.455 141.741 100.923C140.273 96.5933 138.465 92.3753 137.061 88.052C135.891 84.3956 135.306 80.5638 136.938 76.9015C137.64 75.3102 139.015 74.0173 140.729 72.8766C140.916 74.5439 141.098 76.2112 141.209 77.1823C145.842 76.96 150.23 76.7026 154.618 76.5388C160.064 76.3399 165.528 76.4276 170.951 75.983C175.433 75.6145 177.445 72.2506 175.474 68.1554C174.166 65.4575 172.271 63.0867 169.928 61.2171C161.772 54.8988 152.307 51.2717 142.25 49.3704C118.849 44.9886 95.5655 45.0003 72.4981 51.4765C66.9345 53.0385 61.7395 55.4312 57.4045 60.2927C57.5508 54.3899 59.3585 49.5634 62.892 45.7901C66.3144 42.1395 70.5441 39.2495 74.3117 35.8973C75.2887 35.0315 76.4119 33.8147 76.5464 32.5744C77.8569 20.2889 88.9489 11.5663 91.6751 9.06238C94.9395 6.06706 107.278 1.50389 118.639 -1C116.667 0.836969 114.046 5.89156 113.116 8.08539C112.828 8.87746 112.632 9.6999 112.531 10.5366C112.666 12.1454 114.158 13.0698 116.334 13.5495C121.418 14.661 123.243 13.2921 130.608 12.6076C152.125 10.5951 171.735 14.8424 187.94 30.1583C190.635 32.8333 193.102 35.7274 195.318 38.8107C182.277 34.0779 169.103 34.1306 155.805 36.3653C162.492 37.3248 169.231 38.0268 175.86 39.2905C193.381 42.6602 209.557 48.9082 222.223 62.1648C228.705 68.9511 233.262 76.8606 236.181 86.6772C226.014 79.5692 215.893 74.2631 203.584 74.1402C204.298 74.8013 204.982 75.4975 205.731 76.1234C218.432 86.7416 229.395 98.8164 235.906 114.238C245.401 136.738 244.307 158.524 230.085 178.906C227.57 182.533 223.984 185.394 221 188.728C220.065 189.714 219.453 190.961 219.245 192.303C216.905 225.509 202.01 251.232 173.742 269.005C170.976 270.621 168.061 271.967 165.037 273.024C171.823 262.494 175.152 250.916 176.258 238.672C177.268 226.6 176.629 214.446 174.356 202.547C179.306 211.375 184.243 220.132 192.123 227.03C190.953 222.648 189.59 218.605 188.894 214.44C187.209 204.331 188.35 194.245 189.696 184.177C191.094 173.758 192.527 163.344 193.639 152.896C194.083 148.672 193.709 144.366 193.709 140.025C199.957 147.777 205.152 156.353 208.574 166.024C207.404 140.394 205.573 114.981 187.373 94.3527C189.766 106.053 190.14 117.754 189.087 130.238C187.525 129.255 186.396 128.617 185.355 127.863C184.313 127.108 183.266 126.143 181.704 125.569C182.605 127.605 183.319 129.758 184.454 131.654C187.537 136.796 187.964 141.991 186.507 147.859C183.149 161.455 178.563 174.524 171.852 186.827C171.49 187.494 171.004 188.091 170.314 189.097L165.23 180.608C165.844 190.203 167.19 200.675 167.055 211.123C166.774 232.903 160.831 252.876 146.772 270.158C138.67 280.103 131.234 290.633 123.863 301.164C119.938 306.757 118.867 311.168 118.446 317.392C117.439 316.222 116.691 315.421 116.065 314.567C108.032 303.948 106.154 292.172 109.588 279.465C113.14 266.291 120.704 255.321 129.023 244.82C131.363 241.895 133.767 239.058 136.148 236.18C123.477 245.44 110.056 253.046 94.3194 257.925C95.0741 256.544 95.4895 255.766 95.9282 255C101.913 244.469 105.289 233.354 102.761 221.168C102.145 218.616 101.289 216.129 100.205 213.738C96.7704 205.514 95.6732 196.501 97.0339 187.693C97.0917 187.308 97.1817 186.928 97.303 186.558C97.42 186.195 97.5897 185.85 97.8412 185.236C98.6193 187.155 99.298 188.857 100 190.542C103.317 198.481 109.08 204.302 116.182 208.882C116.653 209.103 117.169 209.212 117.689 209.202C118.209 209.192 118.72 209.062 119.183 208.824C127.572 203.588 133.773 196.603 136.324 186.798C136.531 186.251 136.784 185.723 137.079 185.218C138.108 187.371 139.015 189.273 139.928 191.174L140.747 191.063C141.507 187.272 142.473 183.504 142.964 179.678C143.637 174.413 143.549 169.148 141.665 164.099C139.384 157.869 135.131 153.814 128.567 152.399C121.303 150.775 113.744 151.039 106.611 153.165L79.6763 163.549ZM135.862 141.201L136.447 140.499C144.181 147.367 153.6 147.783 163.141 147.689C164.85 147.689 166.008 147.104 166.066 145.238C166.148 141.47 166.728 137.633 166.154 133.947C164.475 123.218 157.121 116.186 149.809 109.821C146.351 112.102 143.145 114.261 139.898 116.344C137.278 118.029 134.493 119.468 131.971 121.275C126.496 125.207 124.401 130.22 125.858 135.316C127.695 141.71 133.586 146.718 139.805 147.151L135.862 141.201ZM149.499 94.3527C149.639 99.1382 153.26 104.708 157.332 106.24C157.25 104.889 157.174 103.59 157.063 101.841C162.387 106.55 168.26 107.387 174.549 106.012C180.247 104.766 182.851 100.162 180.698 94.7798C179.855 92.6854 178.258 90.8601 176.854 89.029C175.737 87.584 174.561 87.8063 172.835 88.637C168.883 90.66 164.735 92.2752 160.456 93.4576C156.923 94.3527 153.132 94.1304 149.469 94.3644L149.499 94.3527Z" fill="url(#paint0_linear_157_44)"/>
<path d="M45.8091 139.926C45.4347 145.349 44.8146 150.766 44.7327 156.19C44.5221 169.686 48.5821 182.112 55.2163 193.684C60.6336 203.138 66.5891 212.287 72.0825 221.7C76.6339 229.504 79.8281 237.823 80.2728 246.997C80.6472 254.602 79.1027 261.809 76.0665 269.163C67.6948 254.175 53.7186 244.803 42.8782 232.558C35.3431 224.005 28.4808 215.095 25.6025 203.828C21.0393 185.979 24.9472 169.475 34.4831 154.154C37.6949 149 41.6379 144.302 45.2416 139.399L45.8091 139.926Z" fill="url(#paint1_linear_157_44)"/>
<path d="M40.2873 121.902C28.2359 129.817 22.5553 141.868 18.2554 154.762C16.2312 160.817 14.7453 167.048 12.9141 173.483C6.28585 170.072 2.13804 164.749 0.628687 157.518C-1.53589 146.911 1.96254 138.077 9.98904 131.151C18.6825 123.744 29.1719 121.826 40.2873 121.902Z" fill="url(#paint2_linear_157_44)"/>
</g>
<defs>
<linearGradient id="paint0_linear_157_44" x1="237.566" y1="141.476" x2="-12.9125" y2="142.413" gradientUnits="userSpaceOnUse">
<stop offset="0.194305" stop-color="#FDFDFD"/>
<stop offset="1" stop-color="#FDFDFD" stop-opacity="0"/>
</linearGradient>
<linearGradient id="paint1_linear_157_44" x1="78.9882" y1="197.467" x2="4.63294" y2="197.669" gradientUnits="userSpaceOnUse">
<stop offset="0.194305" stop-color="#FDFDFD"/>
<stop offset="1" stop-color="#FDFDFD" stop-opacity="0"/>
</linearGradient>
<linearGradient id="paint2_linear_157_44" x1="39.3342" y1="144.982" x2="-13.5634" y2="145.24" gradientUnits="userSpaceOnUse">
<stop offset="0.194305" stop-color="#FDFDFD"/>
<stop offset="1" stop-color="#FDFDFD" stop-opacity="0"/>
</linearGradient>
</defs>
</svg>
