<svg width="221" height="566" viewBox="0 0 221 566" fill="none" xmlns="http://www.w3.org/2000/svg">
<g opacity="0.1">
<path d="M-75.0406 298.372C-80.3179 298.824 -85.631 298.142 -90.6228 296.371C-70.6661 289.985 -52.6039 282.268 -36.8514 270.166C-30.7961 265.579 -25.421 260.157 -20.8861 254.063C-13.6059 244.036 -15.0108 233.18 -24.3878 225.038C-29.9438 220.216 -36.6386 216.682 -42.8225 212.585L-60.7569 200.749C-82.4698 219.056 -97.1579 241.897 -87.3126 272.71L-87.5468 272.848C-90.5908 269.421 -94.2629 266.356 -96.5725 262.482C-104.385 249.379 -105.928 234.808 -105.087 219.907C-104.906 216.64 -105.641 215.086 -108.547 213.372C-120.254 206.496 -126.438 196.225 -126.641 181.91C-109.792 196.598 -92.4748 199.748 -73.5824 186.274C-73.8911 188.988 -74.1784 191.51 -74.4871 194.246C-67.0366 190.936 -60.9804 181.729 -59.9586 172.16C-91.8894 173.65 -115.593 162.911 -123.288 128.862C-106.854 141.635 -87.7916 140.325 -68.7928 139.91C-61.1614 139.74 -53.498 140.655 -45.1534 141.113C-44.9725 139.506 -44.6319 136.43 -44.2913 133.343C-37.969 136.153 -34.0202 143.263 -35.6381 151.363C-37.224 159.282 -40.0232 166.977 -42.4287 174.779C-43.6953 178.823 -45.4514 182.719 -46.6116 186.795C-47.197 188.849 -46.9415 191.148 -47.0373 192.756C-18.172 180.324 9.94836 180.1 39.1756 192.809C38.8137 190.329 38.8137 187.221 37.8771 184.432C35.2056 176.556 31.9167 168.882 29.3622 161.016C27.2335 154.364 26.1692 147.393 29.1387 140.73C30.416 137.835 32.9172 135.483 36.0358 133.407C36.3764 136.44 36.7063 139.474 36.9085 141.241C45.3382 140.836 53.3209 140.368 61.3036 140.07C71.2128 139.708 81.1539 139.868 91.0205 139.059C99.1734 138.388 102.835 132.268 99.2479 124.818C96.8695 119.909 93.4217 115.596 89.1578 112.194C74.3207 100.699 57.0994 94.1003 38.8031 90.6412C-3.7712 82.6691 -46.1326 82.6904 -88.1002 94.4728C-98.2223 97.3147 -107.674 101.668 -115.561 110.513C-115.295 99.7734 -112.006 90.9924 -105.577 84.1273C-99.3505 77.4857 -91.6552 72.2278 -84.8007 66.129C-83.0233 64.5538 -80.9797 62.3399 -80.7349 60.0835C-78.3507 37.732 -58.1705 21.8624 -53.2106 17.3069C-47.2715 11.8574 -24.8242 3.55545 -4.15438 -1C-7.74126 2.34208 -12.5096 11.5381 -14.2019 15.5295C-14.7258 16.9705 -15.0829 18.4668 -15.2663 19.9891C-15.0215 22.9161 -12.3073 24.5978 -8.34794 25.4706C0.901329 27.4928 4.22212 25.0023 17.6224 23.757C56.7695 20.0956 92.4467 27.8228 121.929 55.6877C126.831 60.5545 131.32 65.8199 135.351 71.4295C111.626 62.8189 87.6571 62.9147 63.4642 66.9805C75.6298 68.7261 87.8912 70.0033 99.9504 72.3023C131.828 78.433 161.257 89.8003 184.301 113.919C196.094 126.265 204.385 140.655 209.696 158.515C191.198 145.583 172.784 135.93 150.39 135.706C151.689 136.909 152.934 138.175 154.296 139.314C177.404 158.632 197.35 180.601 209.196 208.657C226.471 249.592 224.48 289.229 198.606 326.311C194.029 332.91 187.504 338.115 182.076 344.182C180.375 345.974 179.261 348.243 178.883 350.685C174.626 411.098 147.527 457.898 96.0974 490.233C91.0653 493.173 85.7616 495.622 80.2598 497.545C92.6063 478.387 98.6626 457.323 100.674 435.046C102.513 413.082 101.349 390.971 97.215 369.322C106.219 385.383 115.203 401.316 129.54 413.865C127.411 405.893 124.931 398.538 123.664 390.96C120.599 372.568 122.674 354.219 125.122 335.901C127.666 316.945 130.274 297.999 132.296 278.99C133.105 271.305 132.424 263.471 132.424 255.574C143.791 269.677 153.243 285.28 159.469 302.874C157.341 256.245 154.009 210.009 120.897 172.48C125.25 193.767 125.931 215.054 124.016 237.767C121.174 235.979 119.119 234.819 117.225 233.446C115.33 232.073 113.425 230.317 110.583 229.274C112.222 232.978 113.521 236.895 115.586 240.343C121.195 249.699 121.972 259.15 119.322 269.826C113.212 294.561 104.868 318.339 92.6596 340.723C91.9997 341.936 91.1163 343.022 89.8603 344.852L80.6111 329.408C81.7286 346.864 84.1766 365.916 83.9318 384.925C83.4209 424.551 72.6071 460.888 47.0305 492.33C32.2892 510.424 18.7612 529.582 5.35034 548.741C-1.7915 558.916 -3.73927 566.941 -4.50561 578.266C-6.3363 576.137 -7.69868 574.679 -8.83755 573.125C-23.4512 553.807 -26.8678 532.381 -20.62 509.263C-14.1593 485.294 -0.397209 465.337 14.738 446.232C18.9954 440.91 23.3699 435.748 27.7019 430.512C4.64787 447.36 -19.7685 461.197 -48.3997 470.074C-47.0267 467.562 -46.271 466.146 -45.4727 464.752C-34.5844 445.594 -28.443 425.371 -33.041 403.2C-34.1618 398.558 -35.7191 394.032 -37.6923 389.683C-43.9405 374.72 -45.9367 358.323 -43.4611 342.298C-43.356 341.597 -43.1922 340.906 -42.9715 340.233C-42.7586 339.573 -42.45 338.945 -41.9923 337.827C-40.5767 341.319 -39.342 344.416 -38.0648 347.481C-32.0299 361.925 -21.546 372.515 -8.62468 380.849C-7.76694 381.249 -6.82877 381.448 -5.88224 381.43C-4.93571 381.411 -4.006 381.176 -3.16452 380.742C12.0984 371.216 23.3806 358.508 28.0211 340.669C28.3983 339.675 28.8575 338.714 29.3942 337.796C31.2674 341.712 32.9172 345.172 34.5776 348.631L36.0677 348.428C37.4514 341.531 39.2076 334.677 40.1016 327.716C41.3256 318.137 41.166 308.558 37.7387 299.372C33.5877 288.037 25.8499 280.661 13.9078 278.085C0.69207 275.131 -13.06 275.611 -26.0376 279.479L-75.0406 298.372ZM27.1803 257.713L28.2447 256.436C42.3155 268.932 59.4516 269.687 76.8113 269.517C79.9192 269.517 82.0266 268.453 82.1331 265.057C82.2821 258.203 83.3358 251.221 82.2927 244.515C79.238 224.995 65.859 212.201 52.5546 200.621C46.2642 204.772 40.4316 208.7 34.5244 212.489C29.7561 215.554 24.6897 218.172 20.1023 221.461C10.1399 228.614 6.32954 237.735 8.9798 247.006C12.3219 258.639 23.04 267.75 34.3541 268.538L27.1803 257.713ZM51.9905 172.48C52.2459 181.186 58.8343 191.319 66.2422 194.107C66.0932 191.649 65.9548 189.286 65.7526 186.103C75.4382 194.671 86.1244 196.193 97.5663 193.692C107.933 191.425 112.669 183.049 108.753 173.257C107.22 169.446 104.314 166.125 101.76 162.794C99.7269 160.165 97.5876 160.569 94.4477 162.081C87.2577 165.761 79.7115 168.7 71.9259 170.851C65.4972 172.48 58.6001 172.075 51.9373 172.501L51.9905 172.48Z" fill="url(#paint0_linear_196_288)"/>
</g>
<defs>
<linearGradient id="paint0_linear_196_288" x1="195.268" y1="142.5" x2="-74.0373" y2="219.092" gradientUnits="userSpaceOnUse">
<stop stop-color="#C0D8D8"/>
<stop offset="1" stop-color="#849C9C"/>
</linearGradient>
</defs>
</svg>
