<svg width="401" height="528" viewBox="0 0 401 528" fill="none" xmlns="http://www.w3.org/2000/svg">
<g opacity="0.13">
<path d="M131.977 272.563C127.173 272.975 122.335 272.354 117.79 270.741C135.96 264.927 152.405 257.901 166.747 246.883C172.26 242.707 177.153 237.77 181.282 232.222C187.91 223.093 186.631 213.209 178.094 205.796C173.036 201.406 166.94 198.189 161.31 194.458L144.982 183.682C125.213 200.35 111.841 221.145 120.804 249.199L120.591 249.325C117.82 246.205 114.476 243.414 112.374 239.887C105.261 227.958 103.856 214.692 104.621 201.125C104.786 198.15 104.117 196.735 101.472 195.175C90.8123 188.915 85.1822 179.564 84.998 166.53C100.338 179.903 116.104 182.771 133.305 170.503C133.024 172.974 132.762 175.271 132.481 177.761C139.264 174.748 144.778 166.365 145.709 157.654C116.637 159.01 95.0567 149.233 88.0505 118.233C103.013 129.862 120.368 128.67 137.666 128.292C144.614 128.137 151.591 128.97 159.188 129.387C159.353 127.923 159.663 125.123 159.973 122.313C165.729 124.871 169.324 131.344 167.851 138.719C166.407 145.928 163.859 152.934 161.669 160.038C160.516 163.72 158.917 167.267 157.86 170.978C157.327 172.848 157.56 174.941 157.473 176.405C183.753 165.086 209.355 164.883 235.965 176.453C235.636 174.195 235.636 171.366 234.783 168.827C232.351 161.656 229.356 154.669 227.031 147.508C225.093 141.451 224.124 135.104 226.827 129.038C227.99 126.402 230.267 124.26 233.107 122.371C233.417 125.133 233.717 127.894 233.901 129.503C241.576 129.135 248.844 128.708 256.112 128.437C265.134 128.108 274.184 128.253 283.167 127.516C290.59 126.906 293.924 121.334 290.658 114.551C288.493 110.082 285.354 106.155 281.472 103.058C267.963 92.5921 252.284 86.584 235.626 83.4347C196.864 76.1765 158.297 76.1959 120.087 86.9232C110.872 89.5106 102.266 93.474 95.0858 101.527C95.3281 91.7491 98.3224 83.7544 104.175 77.5041C109.844 71.4573 116.851 66.6702 123.091 61.1176C124.709 59.6834 126.57 57.6678 126.793 55.6134C128.964 35.2635 147.337 20.8151 151.852 16.6676C157.26 11.706 177.697 4.14751 196.516 0C193.25 3.0428 188.909 11.4153 187.368 15.0492C186.891 16.3612 186.566 17.7236 186.399 19.1095C186.622 21.7744 189.093 23.3055 192.698 24.1001C201.119 25.9413 204.142 23.6737 216.342 22.54C251.984 19.2064 284.466 26.2417 311.309 51.6113C315.771 56.0423 319.859 60.8361 323.528 65.9434C301.928 58.1039 280.105 58.1911 258.079 61.8928C269.155 63.482 280.318 64.6449 291.298 66.738C320.321 72.3197 347.115 82.6691 368.094 104.628C378.831 115.869 386.38 128.97 391.216 145.231C374.374 133.457 357.609 124.667 337.221 124.464C338.403 125.559 339.537 126.712 340.777 127.749C361.815 145.337 379.975 165.338 390.76 190.882C406.488 228.152 404.676 264.239 381.118 298C376.952 304.008 371.011 308.747 366.069 314.271C364.52 315.902 363.506 317.968 363.162 320.191C359.286 375.194 334.614 417.803 287.79 447.243C283.208 449.92 278.38 452.149 273.37 453.9C284.611 436.457 290.125 417.28 291.957 396.998C293.631 377.001 292.571 356.87 288.807 337.159C297.005 351.782 305.184 366.289 318.237 377.714C316.299 370.456 314.041 363.76 312.888 356.86C310.097 340.115 311.987 323.409 314.216 306.731C316.532 289.473 318.906 272.224 320.747 254.917C321.483 247.92 320.863 240.788 320.863 233.598C331.213 246.437 339.818 260.644 345.487 276.662C343.549 234.208 340.515 192.113 310.369 157.944C314.332 177.325 314.952 196.706 313.208 217.386C310.62 215.758 308.75 214.701 307.025 213.451C305.3 212.201 303.566 210.602 300.978 209.653C302.471 213.025 303.653 216.591 305.533 219.731C310.64 228.249 311.347 236.854 308.934 246.573C303.372 269.094 295.775 290.742 284.66 311.121C284.059 312.226 283.255 313.214 282.111 314.881L273.69 300.82C274.708 316.713 276.937 334.058 276.714 351.366C276.248 387.443 266.403 420.526 243.117 449.152C229.696 465.625 217.379 483.068 205.169 500.511C198.667 509.775 196.894 517.082 196.196 527.392C194.529 525.454 193.289 524.127 192.252 522.712C178.947 505.124 175.836 485.617 181.524 464.569C187.407 442.746 199.936 424.577 213.716 407.182C217.592 402.337 221.575 397.637 225.519 392.87C204.53 408.21 182.3 420.807 156.232 428.889C157.483 426.602 158.171 425.313 158.897 424.044C168.811 406.601 174.402 388.189 170.216 368.004C169.195 363.777 167.777 359.657 165.981 355.697C160.292 342.074 158.475 327.145 160.729 312.555C160.825 311.917 160.974 311.288 161.175 310.675C161.368 310.075 161.649 309.503 162.066 308.485C163.355 311.664 164.479 314.484 165.642 317.275C171.136 330.424 180.681 340.066 192.446 347.654C193.227 348.019 194.081 348.2 194.942 348.183C195.804 348.166 196.651 347.952 197.417 347.557C211.313 338.884 221.585 327.314 225.81 311.073C226.153 310.167 226.571 309.292 227.06 308.456C228.765 312.022 230.267 315.172 231.779 318.321L233.136 318.137C234.395 311.858 235.994 305.617 236.808 299.279C237.923 290.558 237.777 281.837 234.657 273.474C230.878 263.153 223.833 256.438 212.96 254.093C200.928 251.403 188.407 251.84 176.592 255.362L131.977 272.563ZM225.044 235.545L226.013 234.383C238.824 245.759 254.426 246.447 270.231 246.292C273.06 246.292 274.979 245.323 275.076 242.232C275.212 235.991 276.171 229.634 275.221 223.529C272.44 205.757 260.259 194.109 248.146 183.566C242.419 187.345 237.109 190.921 231.731 194.371C227.389 197.162 222.777 199.545 218.6 202.54C209.53 209.052 206.061 217.356 208.474 225.797C211.516 236.388 221.275 244.684 231.576 245.401L225.044 235.545ZM247.633 157.944C247.865 165.871 253.864 175.096 260.608 177.635C260.472 175.397 260.346 173.246 260.162 170.348C268.981 178.149 278.71 179.535 289.127 177.257C298.566 175.193 302.878 167.567 299.312 158.652C297.916 155.183 295.271 152.159 292.945 149.126C291.094 146.733 289.146 147.101 286.288 148.477C279.742 151.828 272.871 154.503 265.783 156.462C259.93 157.944 253.65 157.576 247.584 157.964L247.633 157.944Z" fill="url(#paint0_linear_128_628)"/>
<path d="M75.8792 233.433C75.259 242.416 74.2318 251.39 74.0962 260.373C73.7473 282.728 80.4725 303.311 91.4614 322.479C100.435 338.138 110.3 353.294 119.399 368.886C126.938 381.813 132.229 395.593 132.966 410.788C133.586 423.385 131.027 435.324 125.998 447.505C112.131 422.678 88.9807 407.154 71.0243 386.872C58.543 372.704 47.1761 357.946 42.4084 339.282C34.8499 309.716 41.3231 282.38 57.1185 257C62.4386 248.463 68.9699 240.682 74.9392 232.561L75.8792 233.433Z" fill="url(#paint1_linear_128_628)"/>
<path d="M66.7328 203.577C46.7705 216.688 37.3611 236.65 30.2387 258.008C26.8858 268.038 24.4244 278.358 21.3913 289.017C10.412 283.368 3.5415 274.55 1.04137 262.572C-2.54409 245.003 3.25079 230.371 16.5461 218.897C30.9461 206.629 48.321 203.451 66.7328 203.577Z" fill="url(#paint2_linear_128_628)"/>
</g>
<defs>
<linearGradient id="paint0_linear_128_628" x1="393.51" y1="236" x2="-21.3889" y2="237.552" gradientUnits="userSpaceOnUse">
<stop offset="0.194305" stop-color="#FDFDFD"/>
<stop offset="1" stop-color="#FDFDFD" stop-opacity="0"/>
</linearGradient>
<linearGradient id="paint1_linear_128_628" x1="130.838" y1="328.745" x2="7.67403" y2="329.081" gradientUnits="userSpaceOnUse">
<stop offset="0.194305" stop-color="#FDFDFD"/>
<stop offset="1" stop-color="#FDFDFD" stop-opacity="0"/>
</linearGradient>
<linearGradient id="paint2_linear_128_628" x1="65.154" y1="241.808" x2="-22.4668" y2="242.236" gradientUnits="userSpaceOnUse">
<stop offset="0.194305" stop-color="#FDFDFD"/>
<stop offset="1" stop-color="#FDFDFD" stop-opacity="0"/>
</linearGradient>
</defs>
</svg>
