<svg width="150" height="36" viewBox="0 0 150 36" fill="none" xmlns="http://www.w3.org/2000/svg">
<path d="M38.5576 12.1606L35.9233 20H34.0762L37.5293 10.7578H38.71L38.5576 12.1606ZM40.7603 20L38.1133 12.1606L37.9546 10.7578H39.1416L42.6138 20H40.7603ZM40.6396 16.5659V17.9434H35.6821V16.5659H40.6396ZM50.0812 18.6289V20H45.4347V18.6289H50.0812ZM45.9615 10.7578V20H44.2159V10.7578H45.9615ZM58.0246 18.6289V20H53.1115V18.6289H58.0246ZM53.6447 10.7578V20H51.8991V10.7578H53.6447ZM57.3835 14.5728V15.9121H53.1115V14.5728H57.3835ZM58.0056 10.7578V12.1353H53.1115V10.7578H58.0056ZM61.2771 10.7578L63.1243 14.0522L64.9778 10.7578H66.9837L64.2415 15.3408L67.0535 20H65.0286L63.1243 16.6421L61.2264 20H59.1951L62.0071 15.3408L59.2649 10.7578H61.2771ZM73.7427 10.7578L75.7739 15.0679L77.8179 10.7578H79.7349L76.6626 16.6167V20H74.8916V16.6167L71.813 10.7578H73.7427ZM85.8438 10.7578H87.5895V16.896C87.5895 17.6027 87.4371 18.1973 87.1324 18.6797C86.8277 19.1579 86.413 19.5197 85.8883 19.7651C85.3635 20.0063 84.7669 20.127 84.0982 20.127C83.4212 20.127 82.8181 20.0063 82.2892 19.7651C81.7602 19.5197 81.3455 19.1579 81.045 18.6797C80.7446 18.1973 80.5943 17.6027 80.5943 16.896V10.7578H82.3399V16.896C82.3399 17.3276 82.4119 17.681 82.5558 17.9561C82.6996 18.2269 82.9028 18.4279 83.1651 18.5591C83.4275 18.6903 83.7385 18.7559 84.0982 18.7559C84.4622 18.7559 84.7732 18.6903 85.0313 18.5591C85.2937 18.4279 85.4947 18.2269 85.6344 17.9561C85.774 17.681 85.8438 17.3276 85.8438 16.896V10.7578ZM97.3229 10.7578V20H95.571L91.6418 13.5889V20H89.8962V10.7578H91.6418L95.5837 17.1753V10.7578H97.3229ZM105.158 16.9595H106.904C106.858 17.5773 106.686 18.1253 106.39 18.6035C106.094 19.0775 105.681 19.4499 105.152 19.7207C104.623 19.9915 103.982 20.127 103.229 20.127C102.649 20.127 102.126 20.0254 101.661 19.8223C101.2 19.6149 100.804 19.3208 100.474 18.9399C100.148 18.5549 99.8984 18.0936 99.7249 17.5562C99.5514 17.0145 99.4646 16.4072 99.4646 15.7344V15.0298C99.4646 14.3569 99.5535 13.7497 99.7312 13.208C99.909 12.6663 100.163 12.2051 100.493 11.8242C100.827 11.4391 101.227 11.1429 101.693 10.9355C102.162 10.7282 102.687 10.6245 103.267 10.6245C104.02 10.6245 104.657 10.7642 105.178 11.0435C105.698 11.3185 106.102 11.6973 106.39 12.1797C106.678 12.6621 106.851 13.2165 106.91 13.8428H105.165C105.131 13.4535 105.046 13.1234 104.911 12.8525C104.78 12.5817 104.581 12.3765 104.314 12.2368C104.052 12.0929 103.703 12.021 103.267 12.021C102.928 12.021 102.63 12.0845 102.372 12.2114C102.118 12.3384 101.906 12.5288 101.737 12.7827C101.568 13.0324 101.441 13.3455 101.356 13.7222C101.272 14.0946 101.229 14.5262 101.229 15.0171V15.7344C101.229 16.2041 101.267 16.6252 101.344 16.9976C101.42 17.37 101.538 17.6852 101.699 17.9434C101.86 18.2015 102.067 18.3983 102.321 18.5337C102.575 18.6691 102.878 18.7368 103.229 18.7368C103.656 18.7368 104.003 18.6691 104.27 18.5337C104.541 18.3983 104.746 18.1994 104.886 17.937C105.029 17.6746 105.12 17.3488 105.158 16.9595ZM115.038 14.5728V15.9438H110.176V14.5728H115.038ZM110.652 10.7578V20H108.906V10.7578H110.652ZM116.333 10.7578V20H114.587V10.7578H116.333ZM120.62 10.7578V20H118.875V10.7578H120.62ZM126.932 10.7578V20H125.193V10.7578H126.932ZM129.801 10.7578V12.1353H122.356V10.7578H129.801ZM136.348 17.6006C136.348 17.4229 136.321 17.2642 136.266 17.1245C136.215 16.9806 136.12 16.8516 135.98 16.7373C135.845 16.6188 135.652 16.5046 135.403 16.3945C135.157 16.2803 134.84 16.1618 134.45 16.0391C134.019 15.9036 133.617 15.7513 133.244 15.582C132.872 15.4128 132.544 15.216 132.26 14.9917C131.981 14.7674 131.763 14.5093 131.607 14.2173C131.45 13.9211 131.372 13.5783 131.372 13.189C131.372 12.8081 131.452 12.4611 131.613 12.1479C131.778 11.8348 132.011 11.5661 132.311 11.3418C132.612 11.1133 132.965 10.9377 133.371 10.8149C133.782 10.6922 134.235 10.6309 134.73 10.6309C135.415 10.6309 136.008 10.7557 136.507 11.0054C137.011 11.255 137.4 11.5936 137.675 12.021C137.95 12.4484 138.088 12.9287 138.088 13.4619H136.348C136.348 13.1742 136.287 12.9202 136.164 12.7002C136.046 12.4801 135.864 12.3066 135.618 12.1797C135.377 12.0527 135.072 11.9893 134.704 11.9893C134.349 11.9893 134.053 12.0422 133.816 12.1479C133.583 12.2537 133.407 12.3976 133.289 12.5796C133.175 12.7616 133.117 12.9647 133.117 13.189C133.117 13.3582 133.158 13.5106 133.238 13.646C133.318 13.7772 133.439 13.902 133.6 14.0205C133.761 14.1348 133.96 14.2427 134.196 14.3442C134.438 14.4416 134.717 14.5389 135.034 14.6362C135.542 14.7886 135.987 14.9578 136.367 15.144C136.752 15.3302 137.072 15.5418 137.326 15.7788C137.584 16.0158 137.777 16.2824 137.904 16.5786C138.035 16.8748 138.1 17.2113 138.1 17.5879C138.1 17.9857 138.022 18.3411 137.865 18.6543C137.709 18.9674 137.485 19.234 137.193 19.4541C136.901 19.6742 136.549 19.8413 136.139 19.9556C135.733 20.0698 135.278 20.127 134.774 20.127C134.326 20.127 133.881 20.0677 133.441 19.9492C133.005 19.8265 132.61 19.6445 132.254 19.4033C131.899 19.1579 131.615 18.849 131.404 18.4766C131.192 18.0999 131.086 17.6598 131.086 17.1562H132.838C132.838 17.4482 132.885 17.6979 132.978 17.9053C133.075 18.1084 133.21 18.2756 133.384 18.4067C133.562 18.5337 133.769 18.6268 134.006 18.686C134.243 18.7453 134.499 18.7749 134.774 18.7749C135.13 18.7749 135.422 18.7262 135.65 18.6289C135.883 18.5273 136.056 18.3877 136.171 18.21C136.289 18.0322 136.348 17.8291 136.348 17.6006Z" fill="#262626"/>
<path d="M9.0076 18.6052C8.67963 18.6334 8.34943 18.591 8.03921 18.4809C9.27947 18.084 10.402 17.6044 11.381 16.8523C11.7573 16.5673 12.0913 16.2303 12.3732 15.8515C12.8256 15.2284 12.7383 14.5537 12.1556 14.0477C11.8103 13.7481 11.3942 13.5284 11.0099 13.2738L9.8953 12.5382C8.54589 13.676 7.63306 15.0955 8.24492 17.0104L8.23037 17.019C8.04119 16.806 7.81298 16.6155 7.66944 16.3748C7.18392 15.5605 7.08801 14.6549 7.14026 13.7289C7.15151 13.5258 7.10587 13.4292 6.92529 13.3227C6.19766 12.8954 5.81335 12.2571 5.80078 11.3674C6.84789 12.2802 7.92411 12.476 9.09822 11.6386C9.07904 11.8073 9.06118 11.9641 9.042 12.1341C9.50503 11.9283 9.88141 11.3562 9.94491 10.7615C7.96049 10.8541 6.48739 10.1867 6.00915 8.07063C7.03046 8.8644 8.21516 8.78304 9.39589 8.75724C9.87016 8.74666 10.3464 8.80354 10.865 8.83199C10.8763 8.7321 10.8974 8.54094 10.9186 8.34911C11.3115 8.52374 11.5569 8.9656 11.4564 9.46898C11.3578 9.96112 11.1838 10.4394 11.0344 10.9242C10.9556 11.1756 10.8465 11.4177 10.7744 11.671C10.738 11.7987 10.7539 11.9416 10.7479 12.0415C12.5419 11.2689 14.2895 11.255 16.1059 12.0448C16.0834 11.8906 16.0834 11.6975 16.0252 11.5242C15.8591 11.0347 15.6547 10.5578 15.496 10.0689C15.3637 9.65552 15.2975 9.22226 15.4821 8.80817C15.5615 8.62825 15.7169 8.48207 15.9107 8.35308C15.9319 8.5416 15.9524 8.73012 15.965 8.83992C16.4889 8.81479 16.985 8.78568 17.4811 8.76716C18.0969 8.74467 18.7147 8.75459 19.3279 8.70432C19.8346 8.66265 20.0621 8.2823 19.8392 7.81927C19.6914 7.51422 19.4771 7.24615 19.2121 7.03476C18.2901 6.32037 17.2198 5.91026 16.0827 5.69528C13.4368 5.19984 10.8042 5.20116 8.19597 5.93341C7.56691 6.11002 6.97953 6.38057 6.48937 6.93025C6.50591 6.26283 6.71031 5.71711 7.10984 5.29046C7.4968 4.8777 7.97504 4.55093 8.40103 4.17191C8.5115 4.07401 8.6385 3.93643 8.65371 3.79619C8.80188 2.4071 10.056 1.42084 10.3643 1.13773C10.7334 0.799059 12.1284 0.28311 13.413 0C13.1901 0.207702 12.8938 0.779215 12.7886 1.02727C12.756 1.11683 12.7338 1.20982 12.7224 1.30442C12.7376 1.48633 12.9063 1.59084 13.1524 1.64508C13.7272 1.77076 13.9336 1.61598 14.7664 1.53859C17.1993 1.31104 19.4165 1.79127 21.2488 3.523C21.5535 3.82547 21.8324 4.1527 22.0829 4.50132C20.6085 3.96619 19.1189 3.97214 17.6153 4.22483C18.3714 4.33331 19.1334 4.41269 19.8829 4.55556C21.864 4.93657 23.693 5.64303 25.125 7.14192C25.858 7.90923 26.3732 8.80354 26.7033 9.91349C25.5537 9.1098 24.4093 8.50985 23.0176 8.49596C23.0983 8.5707 23.1757 8.64942 23.2604 8.7202C24.6964 9.92077 25.936 11.2861 26.6722 13.0297C27.7458 15.5737 27.6221 18.037 26.0141 20.3416C25.7296 20.7517 25.3242 21.0752 24.9868 21.4522C24.8811 21.5636 24.8118 21.7046 24.7884 21.8564C24.5238 25.6109 22.8397 28.5194 19.6434 30.529C19.3307 30.7117 19.0011 30.8639 18.6592 30.9834C19.4265 29.7927 19.8028 28.4837 19.9279 27.0992C20.0421 25.7342 19.9698 24.3601 19.7129 23.0146C20.2725 24.0128 20.8308 25.003 21.7218 25.7829C21.5895 25.2874 21.4354 24.8304 21.3566 24.3594C21.1661 23.2164 21.2951 22.076 21.4473 20.9376C21.6054 19.7595 21.7674 18.5821 21.8931 17.4007C21.9434 16.9231 21.901 16.4363 21.901 15.9455C22.6075 16.8219 23.1949 17.7916 23.5818 18.8851C23.4495 15.9871 23.2425 13.1137 21.1847 10.7813C21.4552 12.1043 21.4975 13.4272 21.3785 14.8388C21.2019 14.7277 21.0742 14.6556 20.9564 14.5703C20.8387 14.4849 20.7203 14.3758 20.5437 14.311C20.6456 14.5412 20.7263 14.7846 20.8546 14.9989C21.2032 15.5803 21.2515 16.1677 21.0868 16.8312C20.7071 18.3684 20.1885 19.8462 19.4298 21.2372C19.3888 21.3127 19.3339 21.3801 19.2558 21.4939L18.681 20.5341C18.7504 21.6189 18.9026 22.803 18.8874 23.9843C18.8556 26.447 18.1836 28.7053 16.594 30.6593C15.6779 31.7838 14.8372 32.9744 14.0037 34.1651C13.5599 34.7974 13.4388 35.2962 13.3912 36C13.2774 35.8677 13.1927 35.7771 13.122 35.6805C12.2138 34.4799 12.0014 33.1484 12.3897 31.7117C12.7912 30.222 13.6465 28.9818 14.5871 27.7944C14.8517 27.4637 15.1236 27.1429 15.3928 26.8174C13.9601 27.8645 12.4426 28.7245 10.6633 29.2761C10.7486 29.12 10.7956 29.032 10.8452 28.9454C11.5219 27.7547 11.9035 26.4979 11.6178 25.1201C11.5481 24.8316 11.4513 24.5503 11.3287 24.28C10.9404 23.3501 10.8163 22.3311 10.9702 21.3351C10.9767 21.2916 10.9869 21.2487 11.0006 21.2068C11.0138 21.1658 11.033 21.1268 11.0615 21.0573C11.1495 21.2743 11.2262 21.4668 11.3056 21.6573C11.6806 22.5549 12.3322 23.2131 13.1352 23.731C13.1885 23.7559 13.2468 23.7683 13.3056 23.7671C13.3645 23.766 13.4222 23.7513 13.4745 23.7244C14.4231 23.1324 15.1242 22.3426 15.4126 21.2339C15.4361 21.1721 15.4646 21.1124 15.498 21.0553C15.6144 21.2988 15.7169 21.5137 15.8201 21.7287L15.9127 21.7162C15.9987 21.2875 16.1079 20.8615 16.1634 20.4289C16.2395 19.8336 16.2296 19.2383 16.0166 18.6674C15.7586 17.963 15.2777 17.5046 14.5355 17.3445C13.7142 17.1609 12.8595 17.1907 12.053 17.4311L9.0076 18.6052ZM15.3604 16.0784L15.4265 15.999C16.301 16.7756 17.366 16.8226 18.4448 16.812C18.638 16.812 18.769 16.7458 18.7756 16.5348C18.7848 16.1088 18.8503 15.6749 18.7855 15.2582C18.5957 14.0451 17.7642 13.25 16.9373 12.5303C16.5464 12.7883 16.1839 13.0323 15.8168 13.2678C15.5205 13.4583 15.2056 13.621 14.9205 13.8254C14.3014 14.27 14.0646 14.8368 14.2293 15.413C14.437 16.136 15.1031 16.7022 15.8062 16.7511L15.3604 16.0784ZM16.9023 10.7813C16.9182 11.3224 17.3276 11.9522 17.788 12.1255C17.7787 11.9727 17.7701 11.8258 17.7576 11.628C18.3595 12.1605 19.0236 12.2551 19.7347 12.0997C20.379 11.9588 20.6733 11.4382 20.4299 10.8296C20.3347 10.5928 20.1541 10.3864 19.9953 10.1794C19.869 10.016 19.736 10.0412 19.5409 10.1351C19.0941 10.3638 18.6251 10.5465 18.1412 10.6801C17.7417 10.7813 17.3131 10.7562 16.899 10.7827L16.9023 10.7813Z" fill="#262626"/>
<path d="M5.17961 15.9343C5.13728 16.5475 5.06716 17.16 5.0579 17.7732C5.03409 19.2992 5.49315 20.7042 6.24326 22.0126C6.85578 23.0815 7.52916 24.116 8.15029 25.1804C8.66491 26.0628 9.02608 27.0034 9.07635 28.0406C9.11868 28.9005 8.94405 29.7154 8.60075 30.5469C7.65418 28.8522 6.07392 27.7925 4.84821 26.408C3.99624 25.441 3.22033 24.4336 2.89488 23.1596C2.37893 21.1414 2.8208 19.2754 3.899 17.543C4.26215 16.9602 4.70798 16.4291 5.11545 15.8748L5.17961 15.9343Z" fill="#262626"/>
<path d="M4.55521 13.8962C3.19258 14.7912 2.55028 16.1538 2.0641 17.6117C1.83523 18.2964 1.66722 19.0008 1.46018 19.7284C0.710729 19.3428 0.241744 18.7409 0.0710845 17.9233C-0.173661 16.724 0.2219 15.7252 1.12944 14.942C2.11239 14.1046 3.29841 13.8876 4.55521 13.8962Z" fill="#262626"/>
</svg>
