<svg width="502" height="273" viewBox="0 0 502 273" fill="none" xmlns="http://www.w3.org/2000/svg">
<path d="M484.588 21.6182C484.588 150.961 379.912 255.814 250.787 255.814C121.662 255.814 16.9863 150.961 16.9863 21.6182" stroke="#C0D8D8"/>
<circle cx="12.0476" cy="12.0476" r="12.0476" transform="matrix(0.704524 -0.70968 0.704524 0.70968 468.049 17.0996)" fill="#D8E6E5"/>
<circle cx="12.0476" cy="12.0476" r="12.0476" transform="matrix(0.704524 -0.70968 0.704524 0.70968 396.662 186.842)" fill="#D8E6E5"/>
<circle cx="12.0476" cy="12.0476" r="12.0476" transform="matrix(0.704524 -0.70968 0.704524 0.70968 0 17.0996)" fill="#D8E6E5"/>
<circle cx="12.0476" cy="12.0476" r="12.0476" transform="matrix(0.704524 -0.70968 0.704524 0.70968 69.9395 187.843)" fill="#D8E6E5"/>
<circle cx="12.0476" cy="12.0476" r="12.0476" transform="matrix(0.704524 -0.70968 0.704524 0.70968 233.801 255.9)" fill="#D8E6E5"/>
</svg>
